<?xml version="1.0" encoding="UTF-8"?>
<svg id="Layer_2" data-name="Layer 2" xmlns="http://www.w3.org/2000/svg" xmlns:xlink="http://www.w3.org/1999/xlink" viewBox="0 0 1024 1024">
  <defs>
    <style>
      .cls-1 {
        fill: url(#linear-gradient-2);
      }

      .cls-2 {
        fill: url(#linear-gradient-17);
      }

      .cls-3 {
        opacity: .5;
      }

      .cls-4 {
        fill: url(#linear-gradient-15);
      }

      .cls-5 {
        fill: url(#linear-gradient-18);
      }

      .cls-6 {
        fill: url(#linear-gradient-28);
      }

      .cls-7 {
        fill: url(#linear-gradient-14);
      }

      .cls-8 {
        fill: url(#linear-gradient-20);
      }

      .cls-9 {
        fill: url(#linear-gradient-6);
      }

      .cls-10 {
        fill: #7bc623;
      }

      .cls-11 {
        fill: url(#linear-gradient-32);
      }

      .cls-12 {
        fill: url(#linear-gradient-11);
      }

      .cls-13 {
        fill: url(#linear-gradient-10);
      }

      .cls-14 {
        fill: #00a9ec;
      }

      .cls-15 {
        fill: url(#linear-gradient-16);
      }

      .cls-16 {
        fill: url(#linear-gradient-31);
      }

      .cls-17 {
        fill: url(#linear-gradient-21);
      }

      .cls-18 {
        fill: url(#linear-gradient-25);
      }

      .cls-19 {
        fill: url(#linear-gradient-5);
      }

      .cls-20 {
        fill: url(#linear-gradient-7);
      }

      .cls-21 {
        fill: url(#linear-gradient-24);
      }

      .cls-22 {
        fill: url(#linear-gradient-9);
      }

      .cls-23 {
        fill: url(#linear-gradient-22);
      }

      .cls-24 {
        fill: url(#linear-gradient-3);
      }

      .cls-25 {
        fill: url(#linear-gradient);
      }

      .cls-26 {
        fill: url(#linear-gradient-27);
      }

      .cls-27 {
        fill: url(#linear-gradient-33);
      }

      .cls-28 {
        fill: url(#linear-gradient-29);
      }

      .cls-29 {
        fill: url(#linear-gradient-30);
      }

      .cls-30 {
        fill: url(#linear-gradient-23);
      }

      .cls-31 {
        fill: url(#linear-gradient-19);
      }

      .cls-32 {
        fill: url(#linear-gradient-4);
      }

      .cls-33 {
        fill: url(#linear-gradient-8);
      }

      .cls-34 {
        fill: url(#linear-gradient-12);
      }

      .cls-35 {
        fill: url(#linear-gradient-13);
      }

      .cls-36 {
        fill: url(#linear-gradient-26);
      }
    </style>
    <linearGradient id="linear-gradient" x1="505.86" y1="49.24" x2="518.14" y2="974.76" gradientUnits="userSpaceOnUse">
      <stop offset="0" stop-color="#000"/>
      <stop offset=".1" stop-color="#222"/>
      <stop offset=".28" stop-color="#5c5c5c"/>
      <stop offset=".45" stop-color="#8c8d8c"/>
      <stop offset=".61" stop-color="#b2b2b2"/>
      <stop offset=".76" stop-color="#cccdcc"/>
      <stop offset=".9" stop-color="#dddedd"/>
      <stop offset="1" stop-color="#e3e4e3"/>
    </linearGradient>
    <linearGradient id="linear-gradient-2" x1="379.48" y1="17.44" x2="637.12" y2="978.94" xlink:href="#linear-gradient"/>
    <linearGradient id="linear-gradient-3" x1="563.65" y1="1003.4" x2="463.59" y2="51.44" gradientUnits="userSpaceOnUse">
      <stop offset="0" stop-color="#000"/>
      <stop offset=".06" stop-color="#171717"/>
      <stop offset=".22" stop-color="#545554"/>
      <stop offset=".38" stop-color="#878887"/>
      <stop offset=".53" stop-color="#afafaf"/>
      <stop offset=".66" stop-color="#cbcccb"/>
      <stop offset=".78" stop-color="#dcdddc"/>
      <stop offset=".87" stop-color="#e3e4e3"/>
    </linearGradient>
    <linearGradient id="linear-gradient-4" x1="383.35" y1="67.35" x2="404.64" y2="128.85" gradientTransform="translate(8.25 34.05) rotate(-3.2)" gradientUnits="userSpaceOnUse">
      <stop offset=".04" stop-color="#fff"/>
      <stop offset=".42" stop-color="#fff"/>
      <stop offset=".5" stop-color="#cdcdcd"/>
      <stop offset=".64" stop-color="#767676"/>
      <stop offset=".76" stop-color="#363636"/>
      <stop offset=".84" stop-color="#0f0f0f"/>
      <stop offset=".88" stop-color="#000"/>
      <stop offset="1" stop-color="#000"/>
    </linearGradient>
    <linearGradient id="linear-gradient-5" x1="337.15" y1="929.38" x2="325.32" y2="851.33" gradientUnits="userSpaceOnUse">
      <stop offset="0" stop-color="#000"/>
      <stop offset=".28" stop-color="#000"/>
      <stop offset=".32" stop-color="#3d3d3d"/>
      <stop offset=".35" stop-color="#777"/>
      <stop offset=".39" stop-color="#a8a8a8"/>
      <stop offset=".42" stop-color="#cdcdcd"/>
      <stop offset=".45" stop-color="#e8e8e8"/>
      <stop offset=".47" stop-color="#f9f9f9"/>
      <stop offset=".49" stop-color="#fff"/>
      <stop offset="1" stop-color="#fff"/>
    </linearGradient>
    <linearGradient id="linear-gradient-6" x1="425.36" y1="957.93" x2="408.8" y2="876.72" xlink:href="#linear-gradient-5"/>
    <linearGradient id="linear-gradient-7" x1="534.37" y1="968.39" x2="487.86" y2="895.07" xlink:href="#linear-gradient-5"/>
    <linearGradient id="linear-gradient-8" x1="615.17" y1="952" x2="596.25" y2="899.96" xlink:href="#linear-gradient-5"/>
    <linearGradient id="linear-gradient-9" x1="684.78" y1="937.38" x2="689.51" y2="864.84" xlink:href="#linear-gradient-5"/>
    <linearGradient id="linear-gradient-10" x1="498.51" y1="62.47" x2="507.18" y2="120.03" gradientTransform="matrix(1,0,0,1,0,0)" xlink:href="#linear-gradient-4"/>
    <linearGradient id="linear-gradient-11" x1="583.34" y1="65.94" x2="592.01" y2="118.77" gradientTransform="translate(11.01 49.16) rotate(-3.99)" xlink:href="#linear-gradient-4"/>
    <linearGradient id="linear-gradient-12" x1="684.24" y1="103.72" x2="696.07" y2="156.55" gradientTransform="matrix(1,0,0,1,0,0)" xlink:href="#linear-gradient-4"/>
    <linearGradient id="linear-gradient-13" x1="796.36" y1="237.2" x2="858.63" y2="237.2" xlink:href="#linear-gradient"/>
    <linearGradient id="linear-gradient-14" x1="831.94" y1="302.37" x2="895.15" y2="302.37" xlink:href="#linear-gradient"/>
    <linearGradient id="linear-gradient-15" x1="865.74" y1="353.79" x2="934.23" y2="353.79" xlink:href="#linear-gradient"/>
    <linearGradient id="linear-gradient-16" x1="888.57" y1="421.68" x2="953.21" y2="421.68" xlink:href="#linear-gradient"/>
    <linearGradient id="linear-gradient-17" x1="511.66" y1="568.12" x2="511.66" y2="1089.89" xlink:href="#linear-gradient-3"/>
    <linearGradient id="linear-gradient-18" x1="430.67" y1="568.12" x2="430.67" y2="1089.89" xlink:href="#linear-gradient-3"/>
    <linearGradient id="linear-gradient-19" x1="471.26" y1="568.12" x2="471.26" y2="1089.89" xlink:href="#linear-gradient-3"/>
    <linearGradient id="linear-gradient-20" x1="498.02" y1="568.12" x2="498.02" y2="1089.89" xlink:href="#linear-gradient-3"/>
    <linearGradient id="linear-gradient-21" x1="524.57" y1="568.12" x2="524.57" y2="1089.89" xlink:href="#linear-gradient-3"/>
    <linearGradient id="linear-gradient-22" x1="563.05" y1="568.12" x2="563.05" y2="1089.89" xlink:href="#linear-gradient-3"/>
    <linearGradient id="linear-gradient-23" x1="597.22" y1="568.12" x2="597.22" y2="1089.89" xlink:href="#linear-gradient-3"/>
    <linearGradient id="linear-gradient-24" x1="130.96" y1="736.96" x2="193.72" y2="736.96" xlink:href="#linear-gradient"/>
    <linearGradient id="linear-gradient-25" x1="108.73" y1="678.82" x2="163.12" y2="678.82" xlink:href="#linear-gradient"/>
    <linearGradient id="linear-gradient-26" x1="81.06" y1="617.74" x2="139.05" y2="617.74" xlink:href="#linear-gradient"/>
    <linearGradient id="linear-gradient-27" x1="69.49" y1="545.66" x2="127.42" y2="545.66" xlink:href="#linear-gradient"/>
    <linearGradient id="linear-gradient-28" x1="69.52" y1="476.09" x2="129.51" y2="476.09" xlink:href="#linear-gradient"/>
    <linearGradient id="linear-gradient-29" x1="82.55" y1="410.49" x2="140.43" y2="410.49" xlink:href="#linear-gradient"/>
    <linearGradient id="linear-gradient-30" x1="99.83" y1="345.2" x2="168.89" y2="345.2" xlink:href="#linear-gradient"/>
    <linearGradient id="linear-gradient-31" x1="141.2" y1="295.23" x2="204.93" y2="295.23" xlink:href="#linear-gradient"/>
    <linearGradient id="linear-gradient-32" x1="173.49" y1="245.62" x2="220.96" y2="245.62" xlink:href="#linear-gradient"/>
    <linearGradient id="linear-gradient-33" x1="198.03" y1="208.23" x2="268.36" y2="208.23" xlink:href="#linear-gradient"/>
  </defs>
  <circle class="cls-25" cx="512" cy="512" r="462.8"/>
  <path class="cls-1" d="m512,1020C231.89,1020,4,792.11,4,512S231.89,4,512,4s508,227.89,508,508-227.89,508-508,508Zm0-993.4C244.35,26.6,26.6,244.35,26.6,512s217.75,485.4,485.4,485.4,485.4-217.76,485.4-485.4S779.64,26.6,512,26.6Z"/>
  <path class="cls-24" d="m512,997.4c-267.65,0-485.4-217.76-485.4-485.4S244.35,26.6,512,26.6s485.4,217.75,485.4,485.4-217.76,485.4-485.4,485.4Zm0-948.2c-255.19,0-462.8,207.61-462.8,462.8s207.61,462.8,462.8,462.8,462.8-207.61,462.8-462.8S767.19,49.2,512,49.2Z"/>
  <path class="cls-32" d="m402.04,81.96l9.27,14.52c.74,1.17,2.15,1.72,3.49,1.37l16.68-4.33c2.99-.78,5.23,2.73,3.27,5.12l-10.95,13.31c-.88,1.07-.97,2.58-.23,3.74l9.27,14.52c1.66,2.61-.98,5.82-3.86,4.69l-16.04-6.3c-1.29-.51-2.75-.12-3.63.94l-10.95,13.31c-1.96,2.39-5.83.87-5.65-2.22l1.03-17.2c.08-1.38-.73-2.66-2.02-3.16l-16.04-6.3c-2.88-1.13-2.63-5.28.36-6.06l16.68-4.33c1.34-.35,2.3-1.52,2.38-2.9l1.03-17.2c.19-3.09,4.21-4.13,5.87-1.53Z"/>
  <path class="cls-19" d="m344.78,868.24l-.77,17.21c-.06,1.38.77,2.64,2.07,3.13l16.13,6.05c2.89,1.09,2.71,5.24-.27,6.06l-16.61,4.59c-1.33.37-2.28,1.55-2.34,2.93l-.77,17.21c-.14,3.09-4.15,4.2-5.85,1.62l-9.49-14.38c-.76-1.15-2.18-1.69-3.51-1.32l-16.61,4.59c-2.98.82-5.27-2.65-3.34-5.06l10.74-13.47c.86-1.08.93-2.59.17-3.75l-9.49-14.38c-1.7-2.58.89-5.83,3.78-4.75l16.13,6.05c1.29.49,2.75.08,3.62-1l10.74-13.47c1.93-2.42,5.82-.96,5.68,2.13Z"/>
  <path class="cls-9" d="m428.15,898.01l1.07,17.2c.09,1.38,1.05,2.55,2.39,2.89l16.69,4.29c2.99.77,3.25,4.92.38,6.06l-16.02,6.34c-1.29.51-2.1,1.79-2.01,3.17l1.07,17.2c.19,3.08-3.67,4.61-5.64,2.23l-10.98-13.28c-.88-1.07-2.35-1.44-3.63-.93l-16.02,6.34c-2.87,1.14-5.52-2.07-3.87-4.68l9.24-14.54c.74-1.17.65-2.68-.23-3.74l-10.98-13.28c-1.97-2.38.26-5.89,3.25-5.12l16.69,4.29c1.34.34,2.75-.21,3.49-1.38l9.24-14.54c1.66-2.61,5.69-1.57,5.88,1.51Z"/>
  <path class="cls-20" d="m517.61,907.2l5.32,16.39c.43,1.31,1.65,2.2,3.03,2.2h17.23c3.09,0,4.38,3.96,1.88,5.77l-13.94,10.13c-1.12.81-1.59,2.25-1.16,3.57l5.32,16.39c.96,2.94-2.41,5.38-4.91,3.57l-13.94-10.13c-1.12-.81-2.63-.81-3.75,0l-13.94,10.13c-2.5,1.82-5.87-.63-4.91-3.57l5.32-16.39c.43-1.31-.04-2.75-1.16-3.57l-13.94-10.13c-2.5-1.82-1.22-5.77,1.88-5.77h17.23c1.38,0,2.61-.89,3.03-2.2l5.32-16.39c.96-2.94,5.11-2.94,6.07,0Z"/>
  <path class="cls-33" d="m601,898.5l9.36,14.47c.75,1.16,2.16,1.71,3.5,1.35l16.65-4.43c2.99-.79,5.25,2.7,3.3,5.1l-10.87,13.37c-.87,1.07-.95,2.58-.2,3.75l9.36,14.47c1.68,2.6-.94,5.82-3.83,4.71l-16.07-6.2c-1.29-.5-2.75-.11-3.62.96l-10.87,13.37c-1.95,2.4-5.83.9-5.66-2.19l.93-17.2c.07-1.38-.75-2.65-2.04-3.15l-16.07-6.2c-2.88-1.11-2.66-5.27.33-6.06l16.65-4.43c1.34-.36,2.29-1.53,2.37-2.91l.93-17.2c.17-3.09,4.19-4.16,5.87-1.56Z"/>
  <path class="cls-22" d="m676.18,873.48l12.29,12.08c.99.97,2.48,1.19,3.71.56l15.29-7.95c2.74-1.43,5.71,1.49,4.33,4.26l-7.69,15.42c-.62,1.24-.37,2.73.62,3.7l12.29,12.08c2.2,2.17.35,5.89-2.71,5.43l-17.04-2.55c-1.37-.2-2.71.49-3.33,1.73l-7.69,15.42c-1.38,2.77-5.49,2.15-6-.9l-2.84-16.99c-.23-1.36-1.31-2.43-2.67-2.63l-17.04-2.55c-3.06-.46-3.74-4.56-1-5.99l15.29-7.95c1.23-.64,1.9-1.99,1.67-3.36l-2.84-16.99c-.51-3.05,3.18-4.97,5.38-2.8Z"/>
  <path class="cls-13" d="m505.53,67.12l5.32,16.39c.43,1.31,1.65,2.2,3.03,2.2h17.23c3.09,0,4.38,3.96,1.88,5.77l-13.94,10.13c-1.12.81-1.59,2.25-1.16,3.57l5.32,16.39c.96,2.94-2.41,5.38-4.91,3.57l-13.94-10.13c-1.12-.81-2.63-.81-3.75,0l-13.94,10.13c-2.5,1.82-5.87-.63-4.91-3.57l5.32-16.39c.43-1.31-.04-2.75-1.16-3.57l-13.94-10.13c-2.5-1.82-1.22-5.77,1.88-5.77h17.23c1.38,0,2.61-.89,3.03-2.2l5.32-16.39c.96-2.94,5.11-2.94,6.07,0Z"/>
  <path class="cls-12" d="m612.83,76.82l1.79,17.14c.14,1.37,1.16,2.5,2.51,2.79l16.85,3.6c3.02.65,3.45,4.78.63,6.04l-15.75,7c-1.26.56-2.02,1.87-1.88,3.25l1.79,17.14c.32,3.07-3.48,4.76-5.55,2.46l-11.52-12.81c-.92-1.03-2.41-1.34-3.67-.78l-15.75,7c-2.82,1.25-5.61-1.84-4.06-4.51l8.63-14.91c.69-1.2.54-2.7-.39-3.73l-11.52-12.81c-2.07-2.3.02-5.9,3.04-5.25l16.85,3.6c1.35.29,2.74-.33,3.43-1.52l8.63-14.91c1.55-2.68,5.61-1.81,5.94,1.27Z"/>
  <path class="cls-34" d="m707.77,109.37l-2.15,17.1c-.17,1.37.56,2.7,1.81,3.29l15.6,7.32c2.8,1.31,2.28,5.44-.76,6.02l-16.92,3.24c-1.36.26-2.39,1.36-2.57,2.74l-2.15,17.1c-.39,3.07-4.47,3.85-5.96,1.14l-8.31-15.09c-.67-1.21-2.04-1.85-3.4-1.59l-16.92,3.24c-3.04.58-5.04-3.06-2.93-5.32l11.79-12.57c.95-1.01,1.13-2.51.47-3.72l-8.31-15.09c-1.49-2.71,1.35-5.74,4.15-4.43l15.6,7.32c1.25.59,2.74.3,3.68-.71l11.79-12.57c2.11-2.25,5.88-.49,5.49,2.58Z"/>
  <path d="m516.39,893.43c-208.47,0-378.08-169.61-378.08-378.08s169.61-378.08,378.08-378.08c83.27,0,162.3,26.65,228.54,77.07,64.12,48.8,111.83,117.97,134.33,194.77.75,2.5,1.46,4.99,2.11,7.48,8.69,32.06,13.09,65.29,13.09,98.76,0,208.47-169.61,378.08-378.08,378.08Zm0-751.22c-205.75,0-373.14,167.39-373.14,373.14s167.39,373.14,373.14,373.14,373.14-167.39,373.14-373.14c0-33.03-4.35-65.83-12.93-97.48-.64-2.46-1.35-4.9-2.08-7.35-22.22-75.8-69.3-144.07-132.59-192.24-65.38-49.76-143.37-76.06-225.55-76.06Z"/>
  <g>
    <path class="cls-35" d="m796.36,242.54l42.64-36.36,13.64,16c2.78,3.26,4.57,6.24,5.39,8.94.81,2.7.8,5.38-.04,8.02-.84,2.64-2.24,4.8-4.2,6.47-1.82,1.55-3.96,2.52-6.42,2.91-2.45.38-5.03,0-7.72-1.15,1.44,3.22,1.84,6.31,1.2,9.25-.64,2.94-2.2,5.47-4.68,7.59-2,1.7-4.21,2.86-6.65,3.48-2.43.62-4.65.71-6.64.26-1.99-.45-4.02-1.4-6.09-2.87-2.07-1.47-4.26-3.56-6.58-6.27l-13.87-16.26Zm9.84,1.35l9.05,10.61c1.55,1.82,2.71,3.05,3.48,3.67,1.34,1.1,2.65,1.86,3.94,2.27,1.29.41,2.69.45,4.21.13,1.52-.32,2.96-1.06,4.31-2.22,1.59-1.36,2.62-2.94,3.1-4.76s.34-3.65-.42-5.5c-.76-1.85-2.29-4.13-4.61-6.85l-8.41-9.86-14.66,12.5Zm19.69-16.79l7.86,9.22c2.13,2.5,3.83,4.15,5.08,4.96,1.65,1.07,3.28,1.55,4.89,1.43,1.61-.12,3.16-.81,4.65-2.08,1.42-1.21,2.37-2.61,2.87-4.21.5-1.6.41-3.19-.27-4.79-.68-1.6-2.32-3.93-4.94-7l-7.27-8.52-12.88,10.99Z"/>
    <path class="cls-7" d="m831.94,285.4l59.05-10.82,4.16,6.82-35.88,48.77-4.4-7.21,11.08-14.42-12.21-20-17.69,3.59-4.11-6.72Zm28.07,1.81l9.9,16.22,10.2-13.08c3.1-3.98,5.71-7.13,7.85-9.45-3.44,1.26-7.01,2.26-10.71,3l-17.24,3.31Z"/>
    <path class="cls-4" d="m865.74,343.82l51.96-20.99,2.85,7.05-29.77,43.77,40.8-16.48,2.66,6.59-51.96,20.99-2.85-7.05,29.81-43.78-40.83,16.49-2.66-6.59Z"/>
    <path class="cls-15" d="m888.57,405.25l54.66-12.34,1.63,7.23-27.11,6.12,33.24,21.02,2.22,9.8-27.33-17.93-27.11,31.28-2.16-9.55,23.27-25.71-10.75-6.98-18.94,4.27-1.63-7.23Z"/>
  </g>
  <g class="cls-3">
    <path class="cls-10" d="m513.7,261.1l-359.89,303.83c24.22,178.82,177.38,316.69,362.84,316.69s329.43-129.77,360.32-300.79l-363.28-319.73Z"/>
    <path class="cls-14" d="m513.38,186.01l162.01,140.92v-44.74h80.52v114.78l126.81,110.3c-4.31-198.54-166.49-358.2-366.07-358.2S160.28,303.38,150.84,497.26l362.54-311.25Z"/>
  </g>
  <g>
    <path class="cls-2" d="m508.05,717.09c1.1-1.77,1.65-6.73,1.65-14.8v-15.23c-.92.55-3.12,1.1-4.04,1.1v-1.1c2.69-.24,7.4-1.83,9.67-3.24h.73v18.47c0,8.01.61,13.09,1.59,14.8v.73h-9.6v-.73Z"/>
    <path class="cls-5" d="m432.81,791.54c-1.22.31-2.63.43-4.1.43-13.21,0-21.41-9.67-21.41-22.15s8.2-22.14,21.41-22.14,21.53,9.67,21.53,22.14c0,9.73-5.02,17.99-13.83,20.92,1.35,6.97,3.73,13.95,10.46,13.95,3.24,0,5.75-2.57,5.75-6.06,0-3.12-2.32-5.02-5.02-5.02-2.39,0-4.28,1.16-4.71,3.06l-.61-.43c0-2.51,2.45-5.26,5.32-5.26,3.98,0,6.42,3.49,6.42,8.81,0,5.87-3.61,10.03-8.56,10.03-9.24,0-11.5-9.91-12.66-18.29Zm-8.38-3.36c-2.14-3.61-.73-10.71,4.1-10.71,4.04,0,5.57,4.22,6.3,9.6l.61.24c2.39-1.53,4.28-3.92,5.57-7.1s1.96-6.67,1.96-10.4c0-11.81-5.2-20.86-14.25-20.86s-14.13,9.05-14.13,20.86c0,4.34.8,8.26,2.39,11.62,1.65,3.36,3.92,5.69,6.91,7.1l.55-.37Zm8.2,1.9c-.73-5.87-1.41-10.89-4.4-10.89-3.85,0-4.1,11.5.55,11.5,1.41,0,2.69-.18,3.85-.61Z"/>
    <path class="cls-31" d="m455.26,776.12v-11.99c0-8.26-.73-13.27-1.77-14.99v-.73h11.01v.73c-1.16,1.71-1.77,6.73-1.77,14.99v11.99c0,8.07,4.4,13.46,11.32,13.46s11.81-5.44,11.81-13.27v-12.17c0-8.26-.61-13.27-1.77-14.99v-.73h4.96v.73c-1.04,1.71-1.84,6.73-1.84,14.99v12.17c0,9.54-5.69,15.66-16.15,15.66-9.54,0-15.78-6.97-15.78-15.84Z"/>
    <path class="cls-8" d="m492.52,790.5c1.04-1.71,1.77-6.85,1.77-14.93v-11.44c0-8.26-.73-13.27-1.77-14.99v-.73h11.01v.73c-1.04,1.71-1.77,6.73-1.77,14.99v11.44c0,8.14.61,13.09,1.77,14.93v.73h-11.01v-.73Z"/>
    <path class="cls-17" d="m507.26,790.5c1.16-1.65,2.08-6.85,2.08-14.93v-15.17c0-5.69-.92-9.6-1.96-11.26v-.73h11.19v.73c-.06,1.71,2.02,6.79,6.42,14.93l12.91,22.21h.55v-22.21c0-8.14-.8-13.21-1.83-14.93v-.73h5.26v.73c-1.16,1.65-2.02,6.79-2.02,14.93v27.16h-9.67v-.73c.06-1.71-1.96-6.91-6.42-14.99l-12.42-21.35h-.67v21.41c0,8.07.73,13.21,1.77,14.93v.73h-5.2v-.73Z"/>
    <path class="cls-23" d="m557.48,790.5c1.16-1.71,1.83-6.85,1.83-14.93v-25.75h-5.51c-5.08,0-7.59,2.45-7.65,7.83h-.8v-9.24h35.36v9.24h-.8c-.06-5.38-2.75-7.83-7.71-7.83h-5.51v25.75c0,8.14.61,13.09,1.77,14.93v.73h-11.01v-.73Z"/>
    <path class="cls-30" d="m577.43,790.5c1.71-1.71,4.1-6.79,6.97-14.93l4.34-11.44c2.75-8.26,3.85-13.27,3.43-14.99v-.73h10.09v.73c-.55,1.84.61,6.85,3.43,14.99l4.28,11.44c2.81,8.14,5.14,13.15,7.04,14.93v.73h-11.07v-.73c.49-1.77-.67-6.73-3.49-14.93l-2.94-8.14c-1.84-.37-4.28.86-4.53,2.14.24.43.43,1.28.43,1.96,0,1.16-.37,2.51-1.16,2.51s-1.22-1.35-1.22-2.51c0-.67.18-1.53.43-1.96-.12-1.29-2.75-2.51-4.53-2.14l-3,8.14c-2.75,8.14-3.85,13.21-3.36,14.93v.73h-5.14v-.73Zm17.07-21.47c.06-.8.55-1.59,1.47-2.32.92-.8,1.83-1.16,2.88-1.22l-4.28-12.05h-.67l-4.28,12.05c2.14.06,4.28,1.9,4.34,3.55h.55Z"/>
  </g>
  <g>
    <path class="cls-21" d="m193.72,737.32l-47.7,29.29-10.99-17.89c-2.24-3.65-3.55-6.86-3.94-9.66-.39-2.79.04-5.43,1.28-7.91,1.24-2.48,2.96-4.39,5.15-5.74,2.04-1.26,4.3-1.88,6.78-1.88s4.96.78,7.43,2.33c-.92-3.41-.85-6.51.24-9.31,1.08-2.8,3.02-5.06,5.79-6.76,2.23-1.37,4.6-2.17,7.1-2.41,2.5-.23,4.7.02,6.59.77,1.9.75,3.75,2.01,5.57,3.77,1.82,1.77,3.66,4.17,5.52,7.21l11.17,18.19Zm-31.53,10.67l-6.34-10.31c-1.72-2.8-3.13-4.69-4.25-5.68-1.46-1.31-3-2.03-4.6-2.17-1.61-.14-3.24.31-4.92,1.34-1.58.97-2.74,2.21-3.48,3.71-.74,1.5-.9,3.09-.48,4.77.42,1.68,1.68,4.24,3.79,7.66l5.85,9.53,14.42-8.85Zm22.03-13.53l-7.29-11.88c-1.25-2.04-2.21-3.42-2.87-4.15-1.15-1.29-2.33-2.24-3.54-2.85s-2.58-.86-4.13-.78c-1.55.08-3.08.59-4.6,1.53-1.78,1.09-3.04,2.49-3.8,4.21-.75,1.72-.9,3.55-.44,5.49.46,1.94,1.62,4.43,3.49,7.47l6.77,11.03,16.4-10.07Z"/>
    <path class="cls-18" d="m163.12,683.93l-51.48,21.96-2.91-6.81,45.41-19.36-10.81-25.36,6.07-2.59,13.72,32.17Z"/>
    <path class="cls-36" d="m117.32,643.52c-9.01,2.27-16.67,1.63-22.99-1.92-6.31-3.55-10.44-9.16-12.36-16.81-1.26-5.01-1.2-9.83.18-14.45,1.38-4.63,3.95-8.54,7.7-11.72,3.75-3.19,8.34-5.47,13.77-6.84,5.5-1.39,10.71-1.52,15.61-.39s8.99,3.44,12.25,6.96c3.26,3.51,5.48,7.62,6.67,12.34,1.29,5.11,1.2,9.99-.25,14.63-1.45,4.64-4.06,8.54-7.8,11.69s-8,5.32-12.77,6.52Zm-1.76-7.43c6.54-1.65,11.25-4.71,14.13-9.17,2.88-4.46,3.65-9.35,2.31-14.66-1.36-5.4-4.38-9.38-9.06-11.91-4.68-2.53-10.51-2.92-17.5-1.16-4.42,1.11-8.08,2.83-11,5.15-2.92,2.32-4.92,5.15-6.01,8.48-1.09,3.33-1.18,6.79-.28,10.37,1.28,5.09,4.13,9.02,8.55,11.8,4.42,2.79,10.71,3.15,18.88,1.09Z"/>
    <path class="cls-26" d="m105.64,528.06l1.33-7.52c6.18,1.11,11.01,3.56,14.49,7.35,3.48,3.79,5.43,8.6,5.85,14.41.44,6.02-.43,11-2.61,14.95-2.18,3.95-5.52,7.08-10.02,9.38-4.5,2.3-9.42,3.65-14.75,4.04-5.81.42-10.97-.33-15.45-2.23-4.49-1.91-8.01-4.83-10.55-8.77-2.54-3.94-3.99-8.37-4.35-13.3-.4-5.58.68-10.39,3.25-14.4,2.57-4.01,6.37-6.95,11.42-8.83l2.24,7.15c-3.97,1.59-6.79,3.68-8.46,6.28s-2.38,5.76-2.11,9.49c.31,4.29,1.6,7.8,3.86,10.53s5.17,4.56,8.72,5.47c3.55.92,7.17,1.24,10.85.98,4.75-.34,8.84-1.33,12.28-2.98,3.44-1.64,5.93-3.98,7.47-7.03,1.54-3.05,2.19-6.27,1.94-9.67-.3-4.14-1.74-7.55-4.34-10.25-2.59-2.69-6.28-4.38-11.05-5.06Z"/>
    <path class="cls-6" d="m125.26,501.19l-55.74-5.14.68-7.38,27.64,2.55-25.09-30.23.92-10,20.42,25.47,35.41-21.35-.9,9.74-30.04,17.24,8.06,9.95,19.31,1.78-.68,7.37Z"/>
    <path class="cls-28" d="m123.58,396.36l3.68-6.69c5.49,3.04,9.28,6.91,11.35,11.62,2.08,4.71,2.37,9.88.9,15.53-1.53,5.84-3.95,10.27-7.28,13.31-3.33,3.04-7.5,4.92-12.51,5.65-5,.73-10.09.42-15.27-.93-5.64-1.47-10.28-3.83-13.92-7.08-3.64-3.25-6.03-7.15-7.17-11.7-1.14-4.55-1.09-9.21.15-13.99,1.42-5.42,3.98-9.61,7.7-12.59s8.27-4.54,13.65-4.69l-.18,7.49c-4.27.23-7.61,1.3-10.03,3.22-2.42,1.92-4.1,4.69-5.05,8.31-1.08,4.16-1,7.9.27,11.22,1.27,3.32,3.43,5.98,6.5,7.99,3.07,2.01,6.39,3.48,9.96,4.41,4.61,1.2,8.8,1.58,12.59,1.14,3.78-.45,6.9-1.86,9.34-4.25,2.44-2.39,4.09-5.23,4.95-8.53,1.05-4.01.78-7.71-.81-11.1s-4.53-6.17-8.83-8.35Z"/>
    <path class="cls-29" d="m150.88,376.7l-51.05-22.96,3.04-6.76,20.96,9.43,11.93-26.53-20.96-9.43,3.04-6.76,51.05,22.96-3.04,6.76-24.06-10.82-11.94,26.54,24.06,10.82-3.04,6.76Z"/>
    <path class="cls-16" d="m176.03,322.96l-34.83-48.81,4.4-6.66,59.32,11.77-4.65,7.04-17.74-3.91-12.91,19.52,10.75,14.48-4.34,6.56Zm-10.26-26.15l10.47-15.83-16.15-3.68c-4.91-1.11-8.87-2.14-11.87-3.09,2.6,2.57,5.02,5.38,7.25,8.41l10.3,14.18Z"/>
    <path class="cls-11" d="m216.17,266.55l-42.68-36.21,4.79-5.65,42.68,36.21-4.79,5.65Z"/>
    <path class="cls-27" d="m235.85,243.76l-37.82-41.27,5.6-5.13,51.37,12.54-29.69-32.4,5.23-4.8,37.82,41.27-5.6,5.13-51.39-12.57,29.72,32.43-5.24,4.8Z"/>
  </g>
</svg>