<?xml version="1.0" encoding="UTF-8"?>
<svg id="Layer_2" data-name="Layer 2" xmlns="http://www.w3.org/2000/svg" xmlns:xlink="http://www.w3.org/1999/xlink" viewBox="0 0 128 128">
  <defs>
    <style>
      .cls-1 {
        fill: url(#linear-gradient-2);
      }

      .cls-2 {
        fill: url(#linear-gradient-17);
      }

      .cls-3 {
        opacity: .5;
      }

      .cls-4 {
        fill: url(#linear-gradient-15);
      }

      .cls-5 {
        fill: url(#linear-gradient-18);
      }

      .cls-6 {
        fill: url(#linear-gradient-28);
      }

      .cls-7 {
        fill: url(#linear-gradient-14);
      }

      .cls-8 {
        fill: url(#linear-gradient-20);
      }

      .cls-9 {
        fill: url(#linear-gradient-6);
      }

      .cls-10 {
        fill: #7bc623;
      }

      .cls-11 {
        fill: url(#linear-gradient-32);
      }

      .cls-12 {
        fill: url(#linear-gradient-11);
      }

      .cls-13 {
        fill: url(#linear-gradient-10);
      }

      .cls-14 {
        fill: #00a9ec;
      }

      .cls-15 {
        fill: url(#linear-gradient-16);
      }

      .cls-16 {
        fill: url(#linear-gradient-31);
      }

      .cls-17 {
        fill: url(#linear-gradient-21);
      }

      .cls-18 {
        fill: url(#linear-gradient-25);
      }

      .cls-19 {
        fill: url(#linear-gradient-5);
      }

      .cls-20 {
        fill: url(#linear-gradient-7);
      }

      .cls-21 {
        fill: url(#linear-gradient-24);
      }

      .cls-22 {
        fill: url(#linear-gradient-9);
      }

      .cls-23 {
        fill: url(#linear-gradient-22);
      }

      .cls-24 {
        fill: url(#linear-gradient-3);
      }

      .cls-25 {
        fill: url(#linear-gradient);
      }

      .cls-26 {
        fill: url(#linear-gradient-27);
      }

      .cls-27 {
        fill: url(#linear-gradient-33);
      }

      .cls-28 {
        fill: url(#linear-gradient-29);
      }

      .cls-29 {
        fill: url(#linear-gradient-30);
      }

      .cls-30 {
        fill: url(#linear-gradient-23);
      }

      .cls-31 {
        fill: url(#linear-gradient-19);
      }

      .cls-32 {
        fill: url(#linear-gradient-4);
      }

      .cls-33 {
        fill: url(#linear-gradient-8);
      }

      .cls-34 {
        fill: url(#linear-gradient-12);
      }

      .cls-35 {
        fill: url(#linear-gradient-13);
      }

      .cls-36 {
        fill: url(#linear-gradient-26);
      }
    </style>
    <linearGradient id="linear-gradient" x1="63.28" y1="9.34" x2="64.72" y2="118.66" gradientUnits="userSpaceOnUse">
      <stop offset="0" stop-color="#000"/>
      <stop offset=".1" stop-color="#222"/>
      <stop offset=".28" stop-color="#5c5c5c"/>
      <stop offset=".45" stop-color="#8c8d8c"/>
      <stop offset=".61" stop-color="#b2b2b2"/>
      <stop offset=".76" stop-color="#cccdcc"/>
      <stop offset=".9" stop-color="#dddedd"/>
      <stop offset="1" stop-color="#e3e4e3"/>
    </linearGradient>
    <linearGradient id="linear-gradient-2" x1="48.35" y1="5.59" x2="78.78" y2="119.15" xlink:href="#linear-gradient"/>
    <linearGradient id="linear-gradient-3" x1="70.1" y1="122.04" x2="58.28" y2="9.6" gradientUnits="userSpaceOnUse">
      <stop offset="0" stop-color="#000"/>
      <stop offset=".06" stop-color="#171717"/>
      <stop offset=".22" stop-color="#545554"/>
      <stop offset=".38" stop-color="#878887"/>
      <stop offset=".53" stop-color="#afafaf"/>
      <stop offset=".66" stop-color="#cbcccb"/>
      <stop offset=".78" stop-color="#dcdddc"/>
      <stop offset=".87" stop-color="#e3e4e3"/>
    </linearGradient>
    <linearGradient id="linear-gradient-4" x1="93.45" y1="-17.3" x2="95.96" y2="-10.04" gradientTransform="translate(-42.18 35.46) rotate(-3.2)" gradientUnits="userSpaceOnUse">
      <stop offset=".04" stop-color="#fff"/>
      <stop offset=".42" stop-color="#fff"/>
      <stop offset=".5" stop-color="#cdcdcd"/>
      <stop offset=".64" stop-color="#767676"/>
      <stop offset=".76" stop-color="#363636"/>
      <stop offset=".84" stop-color="#0f0f0f"/>
      <stop offset=".88" stop-color="#000"/>
      <stop offset="1" stop-color="#000"/>
    </linearGradient>
    <linearGradient id="linear-gradient-5" x1="43.35" y1="113.3" x2="41.95" y2="104.08" gradientUnits="userSpaceOnUse">
      <stop offset="0" stop-color="#000"/>
      <stop offset=".28" stop-color="#000"/>
      <stop offset=".32" stop-color="#3d3d3d"/>
      <stop offset=".35" stop-color="#777"/>
      <stop offset=".39" stop-color="#a8a8a8"/>
      <stop offset=".42" stop-color="#cdcdcd"/>
      <stop offset=".45" stop-color="#e8e8e8"/>
      <stop offset=".47" stop-color="#f9f9f9"/>
      <stop offset=".49" stop-color="#fff"/>
      <stop offset="1" stop-color="#fff"/>
    </linearGradient>
    <linearGradient id="linear-gradient-6" x1="53.77" y1="116.67" x2="51.81" y2="107.08" xlink:href="#linear-gradient-5"/>
    <linearGradient id="linear-gradient-7" x1="66.64" y1="117.9" x2="61.15" y2="109.24" xlink:href="#linear-gradient-5"/>
    <linearGradient id="linear-gradient-8" x1="76.19" y1="115.97" x2="73.95" y2="109.82" xlink:href="#linear-gradient-5"/>
    <linearGradient id="linear-gradient-9" x1="84.41" y1="114.24" x2="84.97" y2="105.67" xlink:href="#linear-gradient-5"/>
    <linearGradient id="linear-gradient-10" x1="62.41" y1="10.91" x2="63.43" y2="17.7" gradientTransform="matrix(1,0,0,1,0,0)" xlink:href="#linear-gradient-4"/>
    <linearGradient id="linear-gradient-11" x1="128.3" y1="-30.19" x2="129.32" y2="-23.95" gradientTransform="translate(-51.79 51.35) rotate(-3.99)" xlink:href="#linear-gradient-4"/>
    <linearGradient id="linear-gradient-12" x1="84.34" y1="15.78" x2="85.74" y2="22.02" gradientTransform="matrix(1,0,0,1,0,0)" xlink:href="#linear-gradient-4"/>
    <linearGradient id="linear-gradient-13" x1="97.59" y1="31.54" x2="104.94" y2="31.54" xlink:href="#linear-gradient"/>
    <linearGradient id="linear-gradient-14" x1="101.79" y1="39.24" x2="109.25" y2="39.24" xlink:href="#linear-gradient"/>
    <linearGradient id="linear-gradient-15" x1="105.78" y1="45.31" x2="113.87" y2="45.31" xlink:href="#linear-gradient"/>
    <linearGradient id="linear-gradient-16" x1="108.48" y1="53.33" x2="116.11" y2="53.33" xlink:href="#linear-gradient"/>
    <linearGradient id="linear-gradient-17" x1="63.96" y1="70.63" x2="63.96" y2="132.25" xlink:href="#linear-gradient-3"/>
    <linearGradient id="linear-gradient-18" x1="54.39" y1="70.63" x2="54.39" y2="132.25" xlink:href="#linear-gradient-3"/>
    <linearGradient id="linear-gradient-19" x1="59.19" y1="70.63" x2="59.19" y2="132.25" xlink:href="#linear-gradient-3"/>
    <linearGradient id="linear-gradient-20" x1="62.35" y1="70.63" x2="62.35" y2="132.25" xlink:href="#linear-gradient-3"/>
    <linearGradient id="linear-gradient-21" x1="65.48" y1="70.63" x2="65.48" y2="132.25" xlink:href="#linear-gradient-3"/>
    <linearGradient id="linear-gradient-22" x1="70.03" y1="70.63" x2="70.03" y2="132.25" xlink:href="#linear-gradient-3"/>
    <linearGradient id="linear-gradient-23" x1="74.07" y1="70.63" x2="74.07" y2="132.25" xlink:href="#linear-gradient-3"/>
    <linearGradient id="linear-gradient-24" x1="19" y1="90.57" x2="26.41" y2="90.57" xlink:href="#linear-gradient"/>
    <linearGradient id="linear-gradient-25" x1="16.37" y1="83.7" x2="22.79" y2="83.7" xlink:href="#linear-gradient"/>
    <linearGradient id="linear-gradient-26" x1="13.1" y1="76.49" x2="19.95" y2="76.49" xlink:href="#linear-gradient"/>
    <linearGradient id="linear-gradient-27" x1="11.73" y1="67.98" x2="18.58" y2="67.98" xlink:href="#linear-gradient"/>
    <linearGradient id="linear-gradient-28" x1="11.74" y1="59.76" x2="18.82" y2="59.76" xlink:href="#linear-gradient"/>
    <linearGradient id="linear-gradient-29" x1="13.28" y1="52.01" x2="20.11" y2="52.01" xlink:href="#linear-gradient"/>
    <linearGradient id="linear-gradient-30" x1="15.32" y1="44.3" x2="23.47" y2="44.3" xlink:href="#linear-gradient"/>
    <linearGradient id="linear-gradient-31" x1="20.21" y1="38.4" x2="27.73" y2="38.4" xlink:href="#linear-gradient"/>
    <linearGradient id="linear-gradient-32" x1="24.02" y1="32.54" x2="29.62" y2="32.54" xlink:href="#linear-gradient"/>
    <linearGradient id="linear-gradient-33" x1="26.92" y1="28.12" x2="35.22" y2="28.12" xlink:href="#linear-gradient"/>
  </defs>
  <circle class="cls-25" cx="64" cy="64" r="54.66"/>
  <path class="cls-1" d="m64,124c-33.08,0-60-26.92-60-60S30.92,4,64,4s60,26.92,60,60-26.92,60-60,60Zm0-117.33C32.39,6.67,6.67,32.39,6.67,64s25.72,57.33,57.33,57.33,57.33-25.72,57.33-57.33S95.61,6.67,64,6.67Z"/>
  <path class="cls-24" d="m64,121.33c-31.61,0-57.33-25.72-57.33-57.33S32.39,6.67,64,6.67s57.33,25.72,57.33,57.33-25.72,57.33-57.33,57.33Zm0-111.99c-30.14,0-54.66,24.52-54.66,54.66s24.52,54.66,54.66,54.66,54.66-24.52,54.66-54.66S94.14,9.34,64,9.34Z"/>
  <path class="cls-32" d="m51.01,13.21l1.1,1.72c.09.14.25.2.41.16l1.97-.51c.35-.09.62.32.39.6l-1.29,1.57c-.1.13-.11.3-.03.44l1.1,1.72c.2.31-.12.69-.46.55l-1.89-.74c-.15-.06-.33-.01-.43.11l-1.29,1.57c-.23.28-.69.1-.67-.26l.12-2.03c0-.16-.09-.31-.24-.37l-1.89-.74c-.34-.13-.31-.62.04-.72l1.97-.51c.16-.04.27-.18.28-.34l.12-2.03c.02-.36.5-.49.69-.18Z"/>
  <path class="cls-19" d="m44.25,106.08l-.09,2.03c0,.16.09.31.24.37l1.91.71c.34.13.32.62-.03.72l-1.96.54c-.16.04-.27.18-.28.35l-.09,2.03c-.02.36-.49.5-.69.19l-1.12-1.7c-.09-.14-.26-.2-.41-.16l-1.96.54c-.35.1-.62-.31-.4-.6l1.27-1.59c.1-.13.11-.31.02-.44l-1.12-1.7c-.2-.3.11-.69.45-.56l1.91.71c.15.06.33,0,.43-.12l1.27-1.59c.23-.29.69-.11.67.25Z"/>
  <path class="cls-9" d="m54.1,109.59l.13,2.03c.01.16.12.3.28.34l1.97.51c.35.09.38.58.04.72l-1.89.75c-.15.06-.25.21-.24.37l.13,2.03c.02.36-.43.54-.67.26l-1.3-1.57c-.1-.13-.28-.17-.43-.11l-1.89.75c-.34.13-.65-.24-.46-.55l1.09-1.72c.09-.14.08-.32-.03-.44l-1.3-1.57c-.23-.28.03-.7.38-.61l1.97.51c.16.04.32-.03.41-.16l1.09-1.72c.2-.31.67-.19.69.18Z"/>
  <path class="cls-20" d="m64.66,110.68l.63,1.94c.05.16.2.26.36.26h2.03c.37,0,.52.47.22.68l-1.65,1.2c-.13.1-.19.27-.14.42l.63,1.94c.11.35-.28.64-.58.42l-1.65-1.2c-.13-.1-.31-.1-.44,0l-1.65,1.2c-.3.21-.69-.07-.58-.42l.63-1.94c.05-.16,0-.33-.14-.42l-1.65-1.2c-.3-.21-.14-.68.22-.68h2.03c.16,0,.31-.11.36-.26l.63-1.94c.11-.35.6-.35.72,0Z"/>
  <path class="cls-33" d="m74.51,109.65l1.11,1.71c.09.14.26.2.41.16l1.97-.52c.35-.09.62.32.39.6l-1.28,1.58c-.1.13-.11.31-.02.44l1.11,1.71c.2.31-.11.69-.45.56l-1.9-.73c-.15-.06-.33-.01-.43.11l-1.28,1.58c-.23.28-.69.11-.67-.26l.11-2.03c0-.16-.09-.31-.24-.37l-1.9-.73c-.34-.13-.31-.62.04-.72l1.97-.52c.16-.04.27-.18.28-.34l.11-2.03c.02-.36.49-.49.69-.18Z"/>
  <path class="cls-22" d="m83.39,106.69l1.45,1.43c.12.11.29.14.44.07l1.81-.94c.32-.17.67.18.51.5l-.91,1.82c-.07.15-.04.32.07.44l1.45,1.43c.26.26.04.7-.32.64l-2.01-.3c-.16-.02-.32.06-.39.2l-.91,1.82c-.16.33-.65.25-.71-.11l-.34-2.01c-.03-.16-.15-.29-.32-.31l-2.01-.3c-.36-.05-.44-.54-.12-.71l1.81-.94c.14-.08.22-.24.2-.4l-.34-2.01c-.06-.36.38-.59.64-.33Z"/>
  <path class="cls-13" d="m63.24,11.46l.63,1.94c.05.16.2.26.36.26h2.03c.37,0,.52.47.22.68l-1.65,1.2c-.13.1-.19.27-.14.42l.63,1.94c.11.35-.28.64-.58.42l-1.65-1.2c-.13-.1-.31-.1-.44,0l-1.65,1.2c-.3.21-.69-.07-.58-.42l.63-1.94c.05-.16,0-.33-.14-.42l-1.65-1.2c-.3-.21-.14-.68.22-.68h2.03c.16,0,.31-.11.36-.26l.63-1.94c.11-.35.6-.35.72,0Z"/>
  <path class="cls-12" d="m75.91,12.6l.21,2.02c.02.16.14.3.3.33l1.99.42c.36.08.41.56.07.71l-1.86.83c-.15.07-.24.22-.22.38l.21,2.02c.04.36-.41.56-.66.29l-1.36-1.51c-.11-.12-.28-.16-.43-.09l-1.86.83c-.33.15-.66-.22-.48-.53l1.02-1.76c.08-.14.06-.32-.05-.44l-1.36-1.51c-.24-.27,0-.7.36-.62l1.99.42c.16.03.32-.04.4-.18l1.02-1.76c.18-.32.66-.21.7.15Z"/>
  <path class="cls-34" d="m87.12,16.44l-.25,2.02c-.02.16.07.32.21.39l1.84.87c.33.16.27.64-.09.71l-2,.38c-.16.03-.28.16-.3.32l-.25,2.02c-.05.36-.53.45-.7.13l-.98-1.78c-.08-.14-.24-.22-.4-.19l-2,.38c-.36.07-.6-.36-.35-.63l1.39-1.48c.11-.12.13-.3.06-.44l-.98-1.78c-.18-.32.16-.68.49-.52l1.84.87c.15.07.32.04.44-.08l1.39-1.48c.25-.27.69-.06.65.3Z"/>
  <path d="m64.52,109.05c-24.62,0-44.66-20.03-44.66-44.66s20.03-44.66,44.66-44.66c9.83,0,19.17,3.15,26.99,9.1,7.57,5.76,13.21,13.93,15.87,23,.09.29.17.59.25.88,1.03,3.79,1.55,7.71,1.55,11.66,0,24.62-20.03,44.66-44.66,44.66Zm0-88.73c-24.3,0-44.07,19.77-44.07,44.07s19.77,44.07,44.07,44.07,44.07-19.77,44.07-44.07c0-3.9-.51-7.77-1.53-11.51-.08-.29-.16-.58-.25-.87-2.62-8.95-8.19-17.02-15.66-22.71-7.72-5.88-16.93-8.98-26.64-8.98Z"/>
  <g>
    <path class="cls-35" d="m97.59,32.17l5.04-4.29,1.61,1.89c.33.38.54.74.64,1.06.1.32.09.64,0,.95-.1.31-.26.57-.5.76-.22.18-.47.3-.76.34-.29.05-.59,0-.91-.14.17.38.22.75.14,1.09-.08.35-.26.65-.55.9-.24.2-.5.34-.79.41s-.55.08-.78.03c-.24-.05-.47-.17-.72-.34-.24-.17-.5-.42-.78-.74l-1.64-1.92Zm1.16.16l1.07,1.25c.18.22.32.36.41.43.16.13.31.22.47.27.15.05.32.05.5.02s.35-.13.51-.26c.19-.16.31-.35.37-.56s.04-.43-.05-.65c-.09-.22-.27-.49-.54-.81l-.99-1.16-1.73,1.48Zm2.33-1.98l.93,1.09c.25.3.45.49.6.59.2.13.39.18.58.17.19-.01.37-.1.55-.25.17-.14.28-.31.34-.5s.05-.38-.03-.57c-.08-.19-.27-.46-.58-.83l-.86-1.01-1.52,1.3Z"/>
    <path class="cls-7" d="m101.79,37.24l6.97-1.28.49.81-4.24,5.76-.52-.85,1.31-1.7-1.44-2.36-2.09.42-.48-.79Zm3.31.21l1.17,1.92,1.2-1.54c.37-.47.67-.84.93-1.12-.41.15-.83.27-1.26.35l-2.04.39Z"/>
    <path class="cls-4" d="m105.78,44.14l6.14-2.48.34.83-3.52,5.17,4.82-1.95.31.78-6.14,2.48-.34-.83,3.52-5.17-4.82,1.95-.31-.78Z"/>
    <path class="cls-15" d="m108.48,51.39l6.46-1.46.19.85-3.2.72,3.93,2.48.26,1.16-3.23-2.12-3.2,3.69-.25-1.13,2.75-3.04-1.27-.82-2.24.5-.19-.85Z"/>
  </g>
  <g class="cls-3">
    <path class="cls-10" d="m64.2,34.37l-42.51,35.89c2.86,21.12,20.95,37.4,42.86,37.4s38.91-15.33,42.56-35.53l-42.91-37.76Z"/>
    <path class="cls-14" d="m64.16,25.5l19.13,16.64v-5.28h9.51v13.56l14.98,13.03c-.51-23.45-19.66-42.31-43.24-42.31S22.46,39.36,21.34,62.26l42.82-36.76Z"/>
  </g>
  <g>
    <path class="cls-2" d="m63.53,88.22c.13-.21.2-.79.2-1.75v-1.8c-.11.07-.37.13-.48.13v-.13c.32-.03.87-.22,1.14-.38h.09v2.18c0,.95.07,1.55.19,1.75v.09h-1.13v-.09Z"/>
    <path class="cls-5" d="m54.65,97.02c-.14.04-.31.05-.48.05-1.56,0-2.53-1.14-2.53-2.62s.97-2.62,2.53-2.62,2.54,1.14,2.54,2.62c0,1.15-.59,2.12-1.63,2.47.16.82.44,1.65,1.24,1.65.38,0,.68-.3.68-.72,0-.37-.27-.59-.59-.59-.28,0-.51.14-.56.36l-.07-.05c0-.3.29-.62.63-.62.47,0,.76.41.76,1.04,0,.69-.43,1.18-1.01,1.18-1.09,0-1.36-1.17-1.5-2.16Zm-.99-.4c-.25-.43-.09-1.26.48-1.26.48,0,.66.5.74,1.13l.07.03c.28-.18.51-.46.66-.84s.23-.79.23-1.23c0-1.39-.61-2.46-1.68-2.46s-1.67,1.07-1.67,2.46c0,.51.09.98.28,1.37.2.4.46.67.82.84l.07-.04Zm.97.22c-.09-.69-.17-1.29-.52-1.29-.46,0-.48,1.36.07,1.36.17,0,.32-.02.46-.07Z"/>
    <path class="cls-31" d="m57.3,95.2v-1.42c0-.98-.09-1.57-.21-1.77v-.09h1.3v.09c-.14.2-.21.79-.21,1.77v1.42c0,.95.52,1.59,1.34,1.59s1.39-.64,1.39-1.57v-1.44c0-.98-.07-1.57-.21-1.77v-.09h.59v.09c-.12.2-.22.79-.22,1.77v1.44c0,1.13-.67,1.85-1.91,1.85-1.13,0-1.86-.82-1.86-1.87Z"/>
    <path class="cls-8" d="m61.7,96.89c.12-.2.21-.81.21-1.76v-1.35c0-.98-.09-1.57-.21-1.77v-.09h1.3v.09c-.12.2-.21.79-.21,1.77v1.35c0,.96.07,1.55.21,1.76v.09h-1.3v-.09Z"/>
    <path class="cls-17" d="m63.44,96.89c.14-.2.25-.81.25-1.76v-1.79c0-.67-.11-1.13-.23-1.33v-.09h1.32v.09c0,.2.24.8.76,1.76l1.52,2.62h.07v-2.62c0-.96-.09-1.56-.22-1.76v-.09h.62v.09c-.14.2-.24.8-.24,1.76v3.21h-1.14v-.09c0-.2-.23-.82-.76-1.77l-1.47-2.52h-.08v2.53c0,.95.09,1.56.21,1.76v.09h-.61v-.09Z"/>
    <path class="cls-23" d="m69.37,96.89c.14-.2.22-.81.22-1.76v-3.04h-.65c-.6,0-.9.29-.9.92h-.09v-1.09h4.18v1.09h-.09c0-.64-.33-.92-.91-.92h-.65v3.04c0,.96.07,1.55.21,1.76v.09h-1.3v-.09Z"/>
    <path class="cls-30" d="m71.73,96.89c.2-.2.48-.8.82-1.76l.51-1.35c.33-.98.46-1.57.4-1.77v-.09h1.19v.09c-.07.22.07.81.4,1.77l.51,1.35c.33.96.61,1.55.83,1.76v.09h-1.31v-.09c.06-.21-.08-.79-.41-1.76l-.35-.96c-.22-.04-.51.1-.53.25.03.05.05.15.05.23,0,.14-.04.3-.14.3s-.14-.16-.14-.3c0-.08.02-.18.05-.23-.01-.15-.33-.3-.53-.25l-.35.96c-.33.96-.46,1.56-.4,1.76v.09h-.61v-.09Zm2.02-2.54c0-.09.07-.19.17-.27.11-.09.22-.14.34-.14l-.51-1.42h-.08l-.51,1.42c.25,0,.51.22.51.42h.07Z"/>
  </g>
  <g>
    <path class="cls-21" d="m26.41,90.61l-5.63,3.46-1.3-2.11c-.26-.43-.42-.81-.47-1.14-.05-.33,0-.64.15-.93.15-.29.35-.52.61-.68.24-.15.51-.22.8-.22s.59.09.88.28c-.11-.4-.1-.77.03-1.1.13-.33.36-.6.68-.8.26-.16.54-.26.84-.28.3-.03.55,0,.78.09.22.09.44.24.66.45.21.21.43.49.65.85l1.32,2.15Zm-3.72,1.26l-.75-1.22c-.2-.33-.37-.55-.5-.67-.17-.15-.35-.24-.54-.26-.19-.02-.38.04-.58.16-.19.11-.32.26-.41.44-.09.18-.11.36-.06.56.05.2.2.5.45.91l.69,1.13,1.7-1.05Zm2.6-1.6l-.86-1.4c-.15-.24-.26-.4-.34-.49-.14-.15-.28-.26-.42-.34s-.3-.1-.49-.09c-.18,0-.36.07-.54.18-.21.13-.36.29-.45.5-.09.2-.11.42-.05.65.05.23.19.52.41.88l.8,1.3,1.94-1.19Z"/>
    <path class="cls-18" d="m22.79,84.31l-6.08,2.59-.34-.8,5.36-2.29-1.28-3,.72-.31,1.62,3.8Z"/>
    <path class="cls-36" d="m17.38,79.53c-1.06.27-1.97.19-2.72-.23-.75-.42-1.23-1.08-1.46-1.99-.15-.59-.14-1.16.02-1.71.16-.55.47-1.01.91-1.38.44-.38.98-.65,1.63-.81.65-.16,1.26-.18,1.84-.05s1.06.41,1.45.82c.39.41.65.9.79,1.46.15.6.14,1.18-.03,1.73-.17.55-.48,1.01-.92,1.38s-.95.63-1.51.77Zm-.21-.88c.77-.19,1.33-.56,1.67-1.08.34-.53.43-1.1.27-1.73-.16-.64-.52-1.11-1.07-1.41-.55-.3-1.24-.35-2.07-.14-.52.13-.95.33-1.3.61-.34.27-.58.61-.71,1-.13.39-.14.8-.03,1.22.15.6.49,1.07,1.01,1.39.52.33,1.27.37,2.23.13Z"/>
    <path class="cls-26" d="m16.01,65.9l.16-.89c.73.13,1.3.42,1.71.87.41.45.64,1.02.69,1.7.05.71-.05,1.3-.31,1.77-.26.47-.65.84-1.18,1.11-.53.27-1.11.43-1.74.48-.69.05-1.3-.04-1.83-.26-.53-.23-.95-.57-1.25-1.04-.3-.47-.47-.99-.51-1.57-.05-.66.08-1.23.38-1.7.3-.47.75-.82,1.35-1.04l.26.84c-.47.19-.8.43-1,.74s-.28.68-.25,1.12c.04.51.19.92.46,1.24s.61.54,1.03.65c.42.11.85.15,1.28.12.56-.04,1.04-.16,1.45-.35.41-.19.7-.47.88-.83.18-.36.26-.74.23-1.14-.04-.49-.21-.89-.51-1.21-.31-.32-.74-.52-1.3-.6Z"/>
    <path class="cls-6" d="m18.32,62.72l-6.58-.61.08-.87,3.26.3-2.96-3.57.11-1.18,2.41,3.01,4.18-2.52-.11,1.15-3.55,2.04.95,1.17,2.28.21-.08.87Z"/>
    <path class="cls-28" d="m18.12,50.34l.43-.79c.65.36,1.1.82,1.34,1.37.25.56.28,1.17.11,1.83-.18.69-.47,1.21-.86,1.57-.39.36-.89.58-1.48.67-.59.09-1.19.05-1.8-.11-.67-.17-1.21-.45-1.64-.84-.43-.38-.71-.84-.85-1.38-.14-.54-.13-1.09.02-1.65.17-.64.47-1.14.91-1.49s.98-.54,1.61-.55l-.02.88c-.5.03-.9.15-1.18.38-.29.23-.48.55-.6.98-.13.49-.12.93.03,1.32.15.39.41.71.77.94.36.24.75.41,1.18.52.54.14,1.04.19,1.49.13.45-.05.81-.22,1.1-.5.29-.28.48-.62.58-1.01.12-.47.09-.91-.1-1.31s-.54-.73-1.04-.99Z"/>
    <path class="cls-29" d="m21.35,48.02l-6.03-2.71.36-.8,2.48,1.11,1.41-3.13-2.48-1.11.36-.8,6.03,2.71-.36.8-2.84-1.28-1.41,3.13,2.84,1.28-.36.8Z"/>
    <path class="cls-16" d="m24.32,41.67l-4.11-5.76.52-.79,7.01,1.39-.55.83-2.1-.46-1.52,2.31,1.27,1.71-.51.77Zm-1.21-3.09l1.24-1.87-1.91-.43c-.58-.13-1.05-.25-1.4-.37.31.3.59.64.86.99l1.22,1.68Z"/>
    <path class="cls-11" d="m29.06,35.01l-5.04-4.28.57-.67,5.04,4.28-.57.67Z"/>
    <path class="cls-27" d="m31.38,32.32l-4.47-4.87.66-.61,6.07,1.48-3.51-3.83.62-.57,4.47,4.87-.66.61-6.07-1.48,3.51,3.83-.62.57Z"/>
  </g>
</svg>