<?xml version="1.0" encoding="UTF-8"?>
<svg id="Layer_2" data-name="Layer 2" xmlns="http://www.w3.org/2000/svg" xmlns:xlink="http://www.w3.org/1999/xlink" viewBox="0 0 200 200">
  <defs>
    <style>
      .cls-1 {
        fill: url(#linear-gradient-2);
      }

      .cls-2 {
        fill: url(#linear-gradient-17);
      }

      .cls-3 {
        opacity: .5;
      }

      .cls-4 {
        fill: url(#linear-gradient-15);
      }

      .cls-5 {
        fill: url(#linear-gradient-18);
      }

      .cls-6 {
        fill: url(#linear-gradient-28);
      }

      .cls-7 {
        fill: url(#linear-gradient-14);
      }

      .cls-8 {
        fill: url(#linear-gradient-20);
      }

      .cls-9 {
        fill: url(#linear-gradient-6);
      }

      .cls-10 {
        fill: #7bc623;
      }

      .cls-11 {
        fill: url(#linear-gradient-32);
      }

      .cls-12 {
        fill: url(#linear-gradient-11);
      }

      .cls-13 {
        fill: url(#linear-gradient-10);
      }

      .cls-14 {
        fill: #00a9ec;
      }

      .cls-15 {
        fill: url(#linear-gradient-16);
      }

      .cls-16 {
        fill: url(#linear-gradient-31);
      }

      .cls-17 {
        fill: url(#linear-gradient-21);
      }

      .cls-18 {
        fill: url(#linear-gradient-25);
      }

      .cls-19 {
        fill: url(#linear-gradient-5);
      }

      .cls-20 {
        fill: url(#linear-gradient-7);
      }

      .cls-21 {
        fill: url(#linear-gradient-24);
      }

      .cls-22 {
        fill: url(#linear-gradient-9);
      }

      .cls-23 {
        fill: url(#linear-gradient-22);
      }

      .cls-24 {
        fill: url(#linear-gradient-3);
      }

      .cls-25 {
        fill: url(#linear-gradient);
      }

      .cls-26 {
        fill: url(#linear-gradient-27);
      }

      .cls-27 {
        fill: url(#linear-gradient-33);
      }

      .cls-28 {
        fill: url(#linear-gradient-29);
      }

      .cls-29 {
        fill: url(#linear-gradient-30);
      }

      .cls-30 {
        fill: url(#linear-gradient-23);
      }

      .cls-31 {
        fill: url(#linear-gradient-19);
      }

      .cls-32 {
        fill: url(#linear-gradient-4);
      }

      .cls-33 {
        fill: url(#linear-gradient-8);
      }

      .cls-34 {
        fill: url(#linear-gradient-12);
      }

      .cls-35 {
        fill: url(#linear-gradient-13);
      }

      .cls-36 {
        fill: url(#linear-gradient-26);
      }
    </style>
    <linearGradient id="linear-gradient" x1="98.85" y1="13.46" x2="101.15" y2="186.54" gradientUnits="userSpaceOnUse">
      <stop offset="0" stop-color="#000"/>
      <stop offset=".1" stop-color="#222"/>
      <stop offset=".28" stop-color="#5c5c5c"/>
      <stop offset=".45" stop-color="#8c8d8c"/>
      <stop offset=".61" stop-color="#b2b2b2"/>
      <stop offset=".76" stop-color="#cccdcc"/>
      <stop offset=".9" stop-color="#dddedd"/>
      <stop offset="1" stop-color="#e3e4e3"/>
    </linearGradient>
    <linearGradient id="linear-gradient-2" x1="75.22" y1="7.51" x2="123.4" y2="187.32" xlink:href="#linear-gradient"/>
    <linearGradient id="linear-gradient-3" x1="109.66" y1="191.89" x2="90.95" y2="13.87" gradientUnits="userSpaceOnUse">
      <stop offset="0" stop-color="#000"/>
      <stop offset=".06" stop-color="#171717"/>
      <stop offset=".22" stop-color="#545554"/>
      <stop offset=".38" stop-color="#878887"/>
      <stop offset=".53" stop-color="#afafaf"/>
      <stop offset=".66" stop-color="#cbcccb"/>
      <stop offset=".78" stop-color="#dcdddc"/>
      <stop offset=".87" stop-color="#e3e4e3"/>
    </linearGradient>
    <linearGradient id="linear-gradient-4" x1="112.66" y1="-9.76" x2="116.64" y2="1.74" gradientTransform="translate(-33.86 35.23) rotate(-3.2)" gradientUnits="userSpaceOnUse">
      <stop offset=".04" stop-color="#fff"/>
      <stop offset=".42" stop-color="#fff"/>
      <stop offset=".5" stop-color="#cdcdcd"/>
      <stop offset=".64" stop-color="#767676"/>
      <stop offset=".76" stop-color="#363636"/>
      <stop offset=".84" stop-color="#0f0f0f"/>
      <stop offset=".88" stop-color="#000"/>
      <stop offset="1" stop-color="#000"/>
    </linearGradient>
    <linearGradient id="linear-gradient-5" x1="67.3" y1="178.05" x2="65.09" y2="163.46" gradientUnits="userSpaceOnUse">
      <stop offset="0" stop-color="#000"/>
      <stop offset=".28" stop-color="#000"/>
      <stop offset=".32" stop-color="#3d3d3d"/>
      <stop offset=".35" stop-color="#777"/>
      <stop offset=".39" stop-color="#a8a8a8"/>
      <stop offset=".42" stop-color="#cdcdcd"/>
      <stop offset=".45" stop-color="#e8e8e8"/>
      <stop offset=".47" stop-color="#f9f9f9"/>
      <stop offset=".49" stop-color="#fff"/>
      <stop offset="1" stop-color="#fff"/>
    </linearGradient>
    <linearGradient id="linear-gradient-6" x1="83.8" y1="183.39" x2="80.7" y2="168.21" xlink:href="#linear-gradient-5"/>
    <linearGradient id="linear-gradient-7" x1="104.18" y1="185.35" x2="95.49" y2="171.64" xlink:href="#linear-gradient-5"/>
    <linearGradient id="linear-gradient-8" x1="119.29" y1="182.28" x2="115.76" y2="172.55" xlink:href="#linear-gradient-5"/>
    <linearGradient id="linear-gradient-9" x1="132.31" y1="179.55" x2="133.2" y2="165.98" xlink:href="#linear-gradient-5"/>
    <linearGradient id="linear-gradient-10" x1="97.48" y1="15.94" x2="99.1" y2="26.7" gradientTransform="matrix(1,0,0,1,0,0)" xlink:href="#linear-gradient-4"/>
    <linearGradient id="linear-gradient-11" x1="159.32" y1="-21.8" x2="160.94" y2="-11.92" gradientTransform="translate(-41.43 50.99) rotate(-3.99)" xlink:href="#linear-gradient-4"/>
    <linearGradient id="linear-gradient-12" x1="132.21" y1="23.65" x2="134.42" y2="33.53" gradientTransform="matrix(1,0,0,1,0,0)" xlink:href="#linear-gradient-4"/>
    <linearGradient id="linear-gradient-13" x1="153.18" y1="48.61" x2="164.82" y2="48.61" xlink:href="#linear-gradient"/>
    <linearGradient id="linear-gradient-14" x1="159.83" y1="60.8" x2="171.65" y2="60.8" xlink:href="#linear-gradient"/>
    <linearGradient id="linear-gradient-15" x1="166.15" y1="70.41" x2="178.96" y2="70.41" xlink:href="#linear-gradient"/>
    <linearGradient id="linear-gradient-16" x1="170.42" y1="83.11" x2="182.51" y2="83.11" xlink:href="#linear-gradient"/>
    <linearGradient id="linear-gradient-17" x1="99.94" y1="110.49" x2="99.94" y2="208.07" xlink:href="#linear-gradient-3"/>
    <linearGradient id="linear-gradient-18" x1="84.79" y1="110.49" x2="84.79" y2="208.07" xlink:href="#linear-gradient-3"/>
    <linearGradient id="linear-gradient-19" x1="92.38" y1="110.49" x2="92.38" y2="208.07" xlink:href="#linear-gradient-3"/>
    <linearGradient id="linear-gradient-20" x1="97.39" y1="110.49" x2="97.39" y2="208.07" xlink:href="#linear-gradient-3"/>
    <linearGradient id="linear-gradient-21" x1="102.35" y1="110.49" x2="102.35" y2="208.07" xlink:href="#linear-gradient-3"/>
    <linearGradient id="linear-gradient-22" x1="109.55" y1="110.49" x2="109.55" y2="208.07" xlink:href="#linear-gradient-3"/>
    <linearGradient id="linear-gradient-23" x1="115.94" y1="110.49" x2="115.94" y2="208.07" xlink:href="#linear-gradient-3"/>
    <linearGradient id="linear-gradient-24" x1="28.74" y1="142.07" x2="40.48" y2="142.07" xlink:href="#linear-gradient"/>
    <linearGradient id="linear-gradient-25" x1="24.58" y1="131.2" x2="34.76" y2="131.2" xlink:href="#linear-gradient"/>
    <linearGradient id="linear-gradient-26" x1="19.41" y1="119.77" x2="30.25" y2="119.77" xlink:href="#linear-gradient"/>
    <linearGradient id="linear-gradient-27" x1="17.25" y1="106.29" x2="28.08" y2="106.29" xlink:href="#linear-gradient"/>
    <linearGradient id="linear-gradient-28" x1="17.25" y1="93.28" x2="28.47" y2="93.28" xlink:href="#linear-gradient"/>
    <linearGradient id="linear-gradient-29" x1="19.69" y1="81.02" x2="30.51" y2="81.02" xlink:href="#linear-gradient"/>
    <linearGradient id="linear-gradient-30" x1="22.92" y1="68.81" x2="35.84" y2="68.81" xlink:href="#linear-gradient"/>
    <linearGradient id="linear-gradient-31" x1="30.66" y1="59.46" x2="42.58" y2="59.46" xlink:href="#linear-gradient"/>
    <linearGradient id="linear-gradient-32" x1="36.7" y1="50.18" x2="45.57" y2="50.18" xlink:href="#linear-gradient"/>
    <linearGradient id="linear-gradient-33" x1="41.28" y1="43.19" x2="54.44" y2="43.19" xlink:href="#linear-gradient"/>
  </defs>
  <circle class="cls-25" cx="100" cy="100" r="86.55"/>
  <path class="cls-1" d="m100,195c-52.38,0-95-42.62-95-95S47.62,5,100,5s95,42.62,95,95-42.62,95-95,95Zm0-185.77C49.95,9.23,9.23,49.95,9.23,100s40.72,90.77,90.77,90.77,90.77-40.72,90.77-90.77S150.05,9.23,100,9.23Z"/>
  <path class="cls-24" d="m100,190.77c-50.05,0-90.77-40.72-90.77-90.77S49.95,9.23,100,9.23s90.77,40.72,90.77,90.77-40.72,90.77-90.77,90.77Zm0-177.32C52.28,13.45,13.45,52.28,13.45,100s38.82,86.55,86.55,86.55,86.55-38.82,86.55-86.55S147.72,13.45,100,13.45Z"/>
  <path class="cls-32" d="m79.44,19.58l1.73,2.72c.14.22.4.32.65.26l3.12-.81c.56-.15.98.51.61.96l-2.05,2.49c-.16.2-.18.48-.04.7l1.73,2.72c.31.49-.18,1.09-.72.88l-3-1.18c-.24-.09-.51-.02-.68.18l-2.05,2.49c-.37.45-1.09.16-1.06-.41l.19-3.22c.02-.26-.14-.5-.38-.59l-3-1.18c-.54-.21-.49-.99.07-1.13l3.12-.81c.25-.06.43-.28.45-.54l.19-3.22c.03-.58.79-.77,1.1-.29Z"/>
  <path class="cls-19" d="m68.73,166.62l-.14,3.22c-.01.26.14.49.39.59l3.02,1.13c.54.2.51.98-.05,1.13l-3.11.86c-.25.07-.43.29-.44.55l-.14,3.22c-.03.58-.78.78-1.09.3l-1.78-2.69c-.14-.22-.41-.32-.66-.25l-3.11.86c-.56.15-.99-.5-.63-.95l2.01-2.52c.16-.2.17-.49.03-.7l-1.78-2.69c-.32-.48.17-1.09.71-.89l3.02,1.13c.24.09.52.02.68-.19l2.01-2.52c.36-.45,1.09-.18,1.06.4Z"/>
  <path class="cls-9" d="m84.32,172.19l.2,3.22c.02.26.2.48.45.54l3.12.8c.56.14.61.92.07,1.13l-3,1.18c-.24.1-.39.33-.38.59l.2,3.22c.04.58-.69.86-1.06.42l-2.05-2.48c-.16-.2-.44-.27-.68-.17l-3,1.18c-.54.21-1.03-.39-.72-.87l1.73-2.72c.14-.22.12-.5-.04-.7l-2.05-2.48c-.37-.45.05-1.1.61-.96l3.12.8c.25.06.51-.04.65-.26l1.73-2.72c.31-.49,1.06-.29,1.1.28Z"/>
  <path class="cls-20" d="m101.05,173.91l1,3.06c.08.25.31.41.57.41h3.22c.58,0,.82.74.35,1.08l-2.61,1.89c-.21.15-.3.42-.22.67l1,3.06c.18.55-.45,1.01-.92.67l-2.61-1.89c-.21-.15-.49-.15-.7,0l-2.61,1.89c-.47.34-1.1-.12-.92-.67l1-3.06c.08-.25,0-.52-.22-.67l-2.61-1.89c-.47-.34-.23-1.08.35-1.08h3.22c.26,0,.49-.17.57-.41l1-3.06c.18-.55.96-.55,1.13,0Z"/>
  <path class="cls-33" d="m116.64,172.28l1.75,2.71c.14.22.4.32.65.25l3.11-.83c.56-.15.98.5.62.95l-2.03,2.5c-.16.2-.18.48-.04.7l1.75,2.71c.31.49-.18,1.09-.72.88l-3.01-1.16c-.24-.09-.51-.02-.68.18l-2.03,2.5c-.36.45-1.09.17-1.06-.41l.17-3.22c.01-.26-.14-.5-.38-.59l-3.01-1.16c-.54-.21-.5-.98.06-1.13l3.11-.83c.25-.07.43-.29.44-.54l.17-3.22c.03-.58.78-.78,1.1-.29Z"/>
  <path class="cls-22" d="m130.7,167.6l2.3,2.26c.18.18.46.22.69.1l2.86-1.49c.51-.27,1.07.28.81.8l-1.44,2.88c-.12.23-.07.51.12.69l2.3,2.26c.41.41.06,1.1-.51,1.02l-3.19-.48c-.26-.04-.51.09-.62.32l-1.44,2.88c-.26.52-1.03.4-1.12-.17l-.53-3.18c-.04-.25-.24-.45-.5-.49l-3.19-.48c-.57-.09-.7-.85-.19-1.12l2.86-1.49c.23-.12.36-.37.31-.63l-.53-3.18c-.1-.57.59-.93,1.01-.52Z"/>
  <path class="cls-13" d="m98.79,16.8l1,3.06c.08.25.31.41.57.41h3.22c.58,0,.82.74.35,1.08l-2.61,1.89c-.21.15-.3.42-.22.67l1,3.06c.18.55-.45,1.01-.92.67l-2.61-1.89c-.21-.15-.49-.15-.7,0l-2.61,1.89c-.47.34-1.1-.12-.92-.67l1-3.06c.08-.25,0-.52-.22-.67l-2.61-1.89c-.47-.34-.23-1.08.35-1.08h3.22c.26,0,.49-.17.57-.41l1-3.06c.18-.55.96-.55,1.13,0Z"/>
  <path class="cls-12" d="m118.86,18.62l.33,3.2c.03.26.22.47.47.52l3.15.67c.57.12.65.89.12,1.13l-2.94,1.31c-.24.1-.38.35-.35.61l.33,3.2c.06.57-.65.89-1.04.46l-2.15-2.4c-.17-.19-.45-.25-.69-.15l-2.94,1.31c-.53.23-1.05-.34-.76-.84l1.61-2.79c.13-.22.1-.51-.07-.7l-2.15-2.4c-.39-.43,0-1.1.57-.98l3.15.67c.25.05.51-.06.64-.28l1.61-2.79c.29-.5,1.05-.34,1.11.24Z"/>
  <path class="cls-34" d="m136.61,24.7l-.4,3.2c-.03.26.1.5.34.61l2.92,1.37c.52.25.43,1.02-.14,1.13l-3.16.61c-.25.05-.45.26-.48.51l-.4,3.2c-.07.57-.84.72-1.11.21l-1.55-2.82c-.12-.23-.38-.35-.63-.3l-3.16.61c-.57.11-.94-.57-.55-.99l2.2-2.35c.18-.19.21-.47.09-.7l-1.55-2.82c-.28-.51.25-1.07.78-.83l2.92,1.37c.23.11.51.06.69-.13l2.2-2.35c.4-.42,1.1-.09,1.03.48Z"/>
  <path d="m100.82,171.33c-38.99,0-70.7-31.72-70.7-70.7S61.83,29.92,100.82,29.92c15.57,0,30.35,4.98,42.74,14.41,11.99,9.13,20.91,22.06,25.12,36.42.14.47.27.93.4,1.4,1.62,6,2.45,12.21,2.45,18.47,0,38.99-31.72,70.7-70.7,70.7Zm0-140.48c-38.48,0-69.78,31.3-69.78,69.78s31.3,69.78,69.78,69.78,69.78-31.3,69.78-69.78c0-6.18-.81-12.31-2.42-18.23-.12-.46-.25-.92-.39-1.38-4.15-14.18-12.96-26.94-24.79-35.95-12.23-9.31-26.81-14.22-42.18-14.22Z"/>
  <g>
    <path class="cls-35" d="m153.18,49.61l7.97-6.8,2.55,2.99c.52.61.86,1.17,1.01,1.67.15.51.15,1.01,0,1.5-.16.49-.42.9-.79,1.21-.34.29-.74.47-1.2.54-.46.07-.94,0-1.44-.22.27.6.34,1.18.23,1.73-.12.55-.41,1.02-.88,1.42-.37.32-.79.54-1.24.65s-.87.13-1.24.05c-.37-.08-.75-.26-1.14-.54-.39-.27-.8-.67-1.23-1.17l-2.59-3.04Zm1.84.25l1.69,1.98c.29.34.51.57.65.69.25.21.5.35.74.42.24.08.5.08.79.02s.55-.2.81-.41c.3-.25.49-.55.58-.89s.06-.68-.08-1.03c-.14-.35-.43-.77-.86-1.28l-1.57-1.84-2.74,2.34Zm3.68-3.14l1.47,1.72c.4.47.72.78.95.93.31.2.61.29.91.27.3-.02.59-.15.87-.39.26-.23.44-.49.54-.79s.08-.6-.05-.9c-.13-.3-.43-.74-.92-1.31l-1.36-1.59-2.41,2.06Z"/>
    <path class="cls-7" d="m159.83,57.62l11.04-2.02.78,1.28-6.71,9.12-.82-1.35,2.07-2.7-2.28-3.74-3.31.67-.77-1.26Zm5.25.34l1.85,3.03,1.91-2.45c.58-.74,1.07-1.33,1.47-1.77-.64.24-1.31.42-2,.56l-3.22.62Z"/>
    <path class="cls-4" d="m166.15,68.55l9.72-3.92.53,1.32-5.57,8.18,7.63-3.08.5,1.23-9.72,3.92-.53-1.32,5.57-8.19-7.64,3.08-.5-1.23Z"/>
    <path class="cls-15" d="m170.42,80.04l10.22-2.31.31,1.35-5.07,1.14,6.22,3.93.41,1.83-5.11-3.35-5.07,5.85-.4-1.79,4.35-4.81-2.01-1.3-3.54.8-.31-1.35Z"/>
  </g>
  <g class="cls-3">
    <path class="cls-10" d="m100.32,53.08l-67.3,56.82c4.53,33.44,33.17,59.22,67.85,59.22s61.61-24.27,67.38-56.25l-67.94-59.79Z"/>
    <path class="cls-14" d="m100.26,39.04l30.3,26.35v-8.37h15.06v21.46l23.72,20.63c-.81-37.13-31.14-66.99-68.46-66.99S34.22,60.99,32.46,97.24l67.8-58.21Z"/>
  </g>
  <g>
    <path class="cls-2" d="m99.26,138.35c.21-.33.31-1.26.31-2.77v-2.85c-.17.1-.58.21-.76.21v-.21c.5-.05,1.38-.34,1.81-.61h.14v3.45c0,1.5.11,2.45.3,2.77v.14h-1.8v-.14Z"/>
    <path class="cls-5" d="m85.19,152.28c-.23.06-.49.08-.77.08-2.47,0-4-1.81-4-4.14s1.53-4.14,4-4.14,4.03,1.81,4.03,4.14c0,1.82-.94,3.36-2.59,3.91.25,1.3.7,2.61,1.96,2.61.61,0,1.08-.48,1.08-1.13,0-.58-.43-.94-.94-.94-.45,0-.8.22-.88.57l-.11-.08c0-.47.46-.98,1-.98.74,0,1.2.65,1.2,1.65,0,1.1-.67,1.88-1.6,1.88-1.73,0-2.15-1.85-2.37-3.42Zm-1.57-.63c-.4-.67-.14-2,.77-2,.76,0,1.04.79,1.18,1.8l.11.05c.45-.29.8-.73,1.04-1.33s.37-1.25.37-1.94c0-2.21-.97-3.9-2.67-3.9s-2.64,1.69-2.64,3.9c0,.81.15,1.54.45,2.17.31.63.73,1.06,1.29,1.33l.1-.07Zm1.53.35c-.14-1.1-.26-2.04-.82-2.04-.72,0-.77,2.15.1,2.15.26,0,.5-.03.72-.11Z"/>
    <path class="cls-31" d="m89.39,149.39v-2.24c0-1.54-.14-2.48-.33-2.8v-.14h2.06v.14c-.22.32-.33,1.26-.33,2.8v2.24c0,1.51.82,2.52,2.12,2.52s2.21-1.02,2.21-2.48v-2.28c0-1.54-.11-2.48-.33-2.8v-.14h.93v.14c-.19.32-.34,1.26-.34,2.8v2.28c0,1.78-1.06,2.93-3.02,2.93-1.78,0-2.95-1.3-2.95-2.96Z"/>
    <path class="cls-8" d="m96.36,152.08c.19-.32.33-1.28.33-2.79v-2.14c0-1.54-.14-2.48-.33-2.8v-.14h2.06v.14c-.19.32-.33,1.26-.33,2.8v2.14c0,1.52.11,2.45.33,2.79v.14h-2.06v-.14Z"/>
    <path class="cls-17" d="m99.11,152.08c.22-.31.39-1.28.39-2.79v-2.84c0-1.06-.17-1.8-.37-2.1v-.14h2.09v.14c-.01.32.38,1.27,1.2,2.79l2.41,4.15h.1v-4.15c0-1.52-.15-2.47-.34-2.79v-.14h.98v.14c-.22.31-.38,1.27-.38,2.79v5.08h-1.81v-.14c.01-.32-.37-1.29-1.2-2.8l-2.32-3.99h-.13v4c0,1.51.14,2.47.33,2.79v.14h-.97v-.14Z"/>
    <path class="cls-23" d="m108.51,152.08c.22-.32.34-1.28.34-2.79v-4.82h-1.03c-.95,0-1.42.46-1.43,1.46h-.15v-1.73h6.61v1.73h-.15c-.01-1.01-.51-1.46-1.44-1.46h-1.03v4.82c0,1.52.11,2.45.33,2.79v.14h-2.06v-.14Z"/>
    <path class="cls-30" d="m112.24,152.08c.32-.32.77-1.27,1.3-2.79l.81-2.14c.51-1.54.72-2.48.64-2.8v-.14h1.89v.14c-.1.34.11,1.28.64,2.8l.8,2.14c.53,1.52.96,2.46,1.32,2.79v.14h-2.07v-.14c.09-.33-.13-1.26-.65-2.79l-.55-1.52c-.34-.07-.8.16-.85.4.05.08.08.24.08.37,0,.22-.07.47-.22.47s-.23-.25-.23-.47c0-.13.03-.29.08-.37-.02-.24-.51-.47-.85-.4l-.56,1.52c-.51,1.52-.72,2.47-.63,2.79v.14h-.96v-.14Zm3.19-4.02c.01-.15.1-.3.27-.43.17-.15.34-.22.54-.23l-.8-2.25h-.13l-.8,2.25c.4.01.8.35.81.66h.1Z"/>
  </g>
  <g>
    <path class="cls-21" d="m40.48,142.14l-8.92,5.48-2.05-3.35c-.42-.68-.66-1.28-.74-1.81-.07-.52,0-1.02.24-1.48.23-.46.55-.82.96-1.07.38-.23.8-.35,1.27-.35s.93.15,1.39.44c-.17-.64-.16-1.22.05-1.74.2-.52.56-.95,1.08-1.26.42-.26.86-.41,1.33-.45.47-.04.88,0,1.23.14.35.14.7.38,1.04.71.34.33.68.78,1.03,1.35l2.09,3.4Zm-5.9,2l-1.18-1.93c-.32-.52-.59-.88-.79-1.06-.27-.25-.56-.38-.86-.4-.3-.03-.61.06-.92.25-.3.18-.51.41-.65.69-.14.28-.17.58-.09.89.08.31.31.79.71,1.43l1.09,1.78,2.7-1.66Zm4.12-2.53l-1.36-2.22c-.23-.38-.41-.64-.54-.78-.22-.24-.44-.42-.66-.53s-.48-.16-.77-.15c-.29.02-.58.11-.86.29-.33.2-.57.47-.71.79-.14.32-.17.66-.08,1.03.09.36.3.83.65,1.4l1.27,2.06,3.07-1.88Z"/>
    <path class="cls-18" d="m34.76,132.15l-9.63,4.11-.54-1.27,8.49-3.62-2.02-4.74,1.14-.48,2.57,6.02Z"/>
    <path class="cls-36" d="m26.19,124.6c-1.69.42-3.12.3-4.3-.36-1.18-.66-1.95-1.71-2.31-3.14-.24-.94-.23-1.84.03-2.7.26-.87.74-1.6,1.44-2.19.7-.6,1.56-1.02,2.58-1.28,1.03-.26,2-.28,2.92-.07s1.68.64,2.29,1.3c.61.66,1.03,1.43,1.25,2.31.24.95.23,1.87-.05,2.74-.27.87-.76,1.6-1.46,2.19s-1.5,1-2.39,1.22Zm-.33-1.39c1.22-.31,2.1-.88,2.64-1.72.54-.83.68-1.75.43-2.74-.25-1.01-.82-1.75-1.69-2.23-.88-.47-1.97-.55-3.27-.22-.83.21-1.51.53-2.06.96-.55.43-.92.96-1.12,1.59-.2.62-.22,1.27-.05,1.94.24.95.77,1.69,1.6,2.21.83.52,2,.59,3.53.2Z"/>
    <path class="cls-26" d="m24.01,103l.25-1.41c1.16.21,2.06.67,2.71,1.38.65.71,1.02,1.61,1.09,2.69.08,1.13-.08,2.06-.49,2.8-.41.74-1.03,1.32-1.87,1.75-.84.43-1.76.68-2.76.76-1.09.08-2.05-.06-2.89-.42-.84-.36-1.5-.9-1.97-1.64-.48-.74-.75-1.57-.81-2.49-.08-1.04.13-1.94.61-2.69.48-.75,1.19-1.3,2.14-1.65l.42,1.34c-.74.3-1.27.69-1.58,1.17s-.44,1.08-.39,1.78c.06.8.3,1.46.72,1.97s.97.85,1.63,1.02c.66.17,1.34.23,2.03.18.89-.06,1.65-.25,2.3-.56.64-.31,1.11-.74,1.4-1.31.29-.57.41-1.17.36-1.81-.06-.77-.33-1.41-.81-1.92-.48-.5-1.17-.82-2.07-.95Z"/>
    <path class="cls-6" d="m27.68,97.98l-10.42-.96.13-1.38,5.17.48-4.69-5.65.17-1.87,3.82,4.76,6.62-3.99-.17,1.82-5.62,3.22,1.51,1.86,3.61.33-.13,1.38Z"/>
    <path class="cls-28" d="m27.36,78.37l.69-1.25c1.03.57,1.74,1.29,2.12,2.17.39.88.44,1.85.17,2.9-.29,1.09-.74,1.92-1.36,2.49-.62.57-1.4.92-2.34,1.06-.94.14-1.89.08-2.86-.17-1.05-.27-1.92-.72-2.6-1.32-.68-.61-1.13-1.34-1.34-2.19-.21-.85-.2-1.72.03-2.62.26-1.01.74-1.8,1.44-2.35s1.55-.85,2.55-.88l-.03,1.4c-.8.04-1.42.24-1.88.6-.45.36-.77.88-.94,1.55-.2.78-.19,1.48.05,2.1.24.62.64,1.12,1.22,1.49.57.38,1.19.65,1.86.83.86.22,1.65.3,2.35.21.71-.08,1.29-.35,1.75-.8.46-.45.76-.98.93-1.6.2-.75.15-1.44-.15-2.08s-.85-1.15-1.65-1.56Z"/>
    <path class="cls-29" d="m32.47,74.7l-9.55-4.29.57-1.26,3.92,1.76,2.23-4.96-3.92-1.76.57-1.26,9.55,4.29-.57,1.26-4.5-2.02-2.23,4.96,4.5,2.02-.57,1.26Z"/>
    <path class="cls-16" d="m37.17,64.65l-6.51-9.13.82-1.24,11.09,2.2-.87,1.32-3.32-.73-2.41,3.65,2.01,2.71-.81,1.23Zm-1.92-4.89l1.96-2.96-3.02-.69c-.92-.21-1.66-.4-2.22-.58.49.48.94,1.01,1.36,1.57l1.93,2.65Z"/>
    <path class="cls-11" d="m44.68,54.1l-7.98-6.77.9-1.06,7.98,6.77-.9,1.06Z"/>
    <path class="cls-27" d="m48.36,49.84l-7.07-7.72,1.05-.96,9.61,2.34-5.55-6.06.98-.9,7.07,7.72-1.05.96-9.61-2.35,5.56,6.06-.98.9Z"/>
  </g>
</svg>