<?xml version="1.0" encoding="UTF-8"?>
<svg id="Layer_2" data-name="Layer 2" xmlns="http://www.w3.org/2000/svg" xmlns:xlink="http://www.w3.org/1999/xlink" viewBox="0 0 512 512">
  <defs>
    <style>
      .cls-1 {
        fill: url(#linear-gradient-2);
      }

      .cls-2 {
        fill: url(#linear-gradient-17);
      }

      .cls-3 {
        opacity: .5;
      }

      .cls-4 {
        fill: url(#linear-gradient-15);
      }

      .cls-5 {
        fill: url(#linear-gradient-18);
      }

      .cls-6 {
        fill: url(#linear-gradient-28);
      }

      .cls-7 {
        fill: url(#linear-gradient-14);
      }

      .cls-8 {
        fill: url(#linear-gradient-20);
      }

      .cls-9 {
        fill: url(#linear-gradient-6);
      }

      .cls-10 {
        fill: #7bc623;
      }

      .cls-11 {
        fill: url(#linear-gradient-32);
      }

      .cls-12 {
        fill: url(#linear-gradient-11);
      }

      .cls-13 {
        fill: url(#linear-gradient-10);
      }

      .cls-14 {
        fill: #00a9ec;
      }

      .cls-15 {
        fill: url(#linear-gradient-16);
      }

      .cls-16 {
        fill: url(#linear-gradient-31);
      }

      .cls-17 {
        fill: url(#linear-gradient-21);
      }

      .cls-18 {
        fill: url(#linear-gradient-25);
      }

      .cls-19 {
        fill: url(#linear-gradient-5);
      }

      .cls-20 {
        fill: url(#linear-gradient-7);
      }

      .cls-21 {
        fill: url(#linear-gradient-24);
      }

      .cls-22 {
        fill: url(#linear-gradient-9);
      }

      .cls-23 {
        fill: url(#linear-gradient-22);
      }

      .cls-24 {
        fill: url(#linear-gradient-3);
      }

      .cls-25 {
        fill: url(#linear-gradient);
      }

      .cls-26 {
        fill: url(#linear-gradient-27);
      }

      .cls-27 {
        fill: url(#linear-gradient-33);
      }

      .cls-28 {
        fill: url(#linear-gradient-29);
      }

      .cls-29 {
        fill: url(#linear-gradient-30);
      }

      .cls-30 {
        fill: url(#linear-gradient-23);
      }

      .cls-31 {
        fill: url(#linear-gradient-19);
      }

      .cls-32 {
        fill: url(#linear-gradient-4);
      }

      .cls-33 {
        fill: url(#linear-gradient-8);
      }

      .cls-34 {
        fill: url(#linear-gradient-12);
      }

      .cls-35 {
        fill: url(#linear-gradient-13);
      }

      .cls-36 {
        fill: url(#linear-gradient-26);
      }
    </style>
    <linearGradient id="linear-gradient" x1="252.98" y1="28.27" x2="259.02" y2="483.74" gradientUnits="userSpaceOnUse">
      <stop offset="0" stop-color="#000"/>
      <stop offset=".1" stop-color="#222"/>
      <stop offset=".28" stop-color="#5c5c5c"/>
      <stop offset=".45" stop-color="#8c8d8c"/>
      <stop offset=".61" stop-color="#b2b2b2"/>
      <stop offset=".76" stop-color="#cccdcc"/>
      <stop offset=".9" stop-color="#dddedd"/>
      <stop offset="1" stop-color="#e3e4e3"/>
    </linearGradient>
    <linearGradient id="linear-gradient-2" x1="190.79" y1="12.62" x2="317.57" y2="485.79" xlink:href="#linear-gradient"/>
    <linearGradient id="linear-gradient-3" x1="281.42" y1="497.83" x2="232.18" y2="29.34" gradientUnits="userSpaceOnUse">
      <stop offset="0" stop-color="#000"/>
      <stop offset=".06" stop-color="#171717"/>
      <stop offset=".22" stop-color="#545554"/>
      <stop offset=".38" stop-color="#878887"/>
      <stop offset=".53" stop-color="#afafaf"/>
      <stop offset=".66" stop-color="#cbcccb"/>
      <stop offset=".78" stop-color="#dcdddc"/>
      <stop offset=".87" stop-color="#e3e4e3"/>
    </linearGradient>
    <linearGradient id="linear-gradient-4" x1="219.01" y1="20.73" x2="229.48" y2="50.99" gradientTransform="translate(-21.52 34.88) rotate(-3.2)" gradientUnits="userSpaceOnUse">
      <stop offset=".04" stop-color="#fff"/>
      <stop offset=".42" stop-color="#fff"/>
      <stop offset=".5" stop-color="#cdcdcd"/>
      <stop offset=".64" stop-color="#767676"/>
      <stop offset=".76" stop-color="#363636"/>
      <stop offset=".84" stop-color="#0f0f0f"/>
      <stop offset=".88" stop-color="#000"/>
      <stop offset="1" stop-color="#000"/>
    </linearGradient>
    <linearGradient id="linear-gradient-5" x1="169.95" y1="461.41" x2="164.13" y2="422.99" gradientUnits="userSpaceOnUse">
      <stop offset="0" stop-color="#000"/>
      <stop offset=".28" stop-color="#000"/>
      <stop offset=".32" stop-color="#3d3d3d"/>
      <stop offset=".35" stop-color="#777"/>
      <stop offset=".39" stop-color="#a8a8a8"/>
      <stop offset=".42" stop-color="#cdcdcd"/>
      <stop offset=".45" stop-color="#e8e8e8"/>
      <stop offset=".47" stop-color="#f9f9f9"/>
      <stop offset=".49" stop-color="#fff"/>
      <stop offset="1" stop-color="#fff"/>
    </linearGradient>
    <linearGradient id="linear-gradient-6" x1="213.36" y1="475.45" x2="205.21" y2="435.49" xlink:href="#linear-gradient-5"/>
    <linearGradient id="linear-gradient-7" x1="267.01" y1="480.6" x2="244.12" y2="444.52" xlink:href="#linear-gradient-5"/>
    <linearGradient id="linear-gradient-8" x1="306.77" y1="472.53" x2="297.46" y2="446.93" xlink:href="#linear-gradient-5"/>
    <linearGradient id="linear-gradient-9" x1="341.03" y1="465.34" x2="343.36" y2="429.64" xlink:href="#linear-gradient-5"/>
    <linearGradient id="linear-gradient-10" x1="249.36" y1="34.78" x2="253.63" y2="63.1" gradientTransform="matrix(1,0,0,1,0,0)" xlink:href="#linear-gradient-4"/>
    <linearGradient id="linear-gradient-11" x1="324.04" y1="12.75" x2="328.31" y2="38.74" gradientTransform="translate(-26.06 50.45) rotate(-3.99)" xlink:href="#linear-gradient-4"/>
    <linearGradient id="linear-gradient-12" x1="340.76" y1="55.08" x2="346.58" y2="81.07" gradientTransform="matrix(1,0,0,1,0,0)" xlink:href="#linear-gradient-4"/>
    <linearGradient id="linear-gradient-13" x1="395.94" y1="120.76" x2="426.58" y2="120.76" xlink:href="#linear-gradient"/>
    <linearGradient id="linear-gradient-14" x1="413.45" y1="152.84" x2="444.56" y2="152.84" xlink:href="#linear-gradient"/>
    <linearGradient id="linear-gradient-15" x1="430.08" y1="178.14" x2="463.79" y2="178.14" xlink:href="#linear-gradient"/>
    <linearGradient id="linear-gradient-16" x1="441.32" y1="211.55" x2="473.13" y2="211.55" xlink:href="#linear-gradient"/>
    <linearGradient id="linear-gradient-17" x1="255.83" y1="283.62" x2="255.83" y2="540.39" xlink:href="#linear-gradient-3"/>
    <linearGradient id="linear-gradient-18" x1="215.97" y1="283.62" x2="215.97" y2="540.39" xlink:href="#linear-gradient-3"/>
    <linearGradient id="linear-gradient-19" x1="235.95" y1="283.62" x2="235.95" y2="540.39" xlink:href="#linear-gradient-3"/>
    <linearGradient id="linear-gradient-20" x1="249.12" y1="283.62" x2="249.12" y2="540.39" xlink:href="#linear-gradient-3"/>
    <linearGradient id="linear-gradient-21" x1="262.19" y1="283.62" x2="262.19" y2="540.39" xlink:href="#linear-gradient-3"/>
    <linearGradient id="linear-gradient-22" x1="281.12" y1="283.62" x2="281.12" y2="540.39" xlink:href="#linear-gradient-3"/>
    <linearGradient id="linear-gradient-23" x1="297.94" y1="283.62" x2="297.94" y2="540.39" xlink:href="#linear-gradient-3"/>
    <linearGradient id="linear-gradient-24" x1="68.48" y1="366.71" x2="99.37" y2="366.71" xlink:href="#linear-gradient"/>
    <linearGradient id="linear-gradient-25" x1="57.54" y1="338.1" x2="84.31" y2="338.1" xlink:href="#linear-gradient"/>
    <linearGradient id="linear-gradient-26" x1="43.92" y1="308.04" x2="72.46" y2="308.04" xlink:href="#linear-gradient"/>
    <linearGradient id="linear-gradient-27" x1="38.23" y1="272.56" x2="66.74" y2="272.56" xlink:href="#linear-gradient"/>
    <linearGradient id="linear-gradient-28" x1="38.24" y1="238.33" x2="67.77" y2="238.33" xlink:href="#linear-gradient"/>
    <linearGradient id="linear-gradient-29" x1="44.66" y1="206.04" x2="73.14" y2="206.04" xlink:href="#linear-gradient"/>
    <linearGradient id="linear-gradient-30" x1="53.16" y1="173.91" x2="87.15" y2="173.91" xlink:href="#linear-gradient"/>
    <linearGradient id="linear-gradient-31" x1="73.52" y1="149.32" x2="104.88" y2="149.32" xlink:href="#linear-gradient"/>
    <linearGradient id="linear-gradient-32" x1="89.41" y1="124.91" x2="112.77" y2="124.91" xlink:href="#linear-gradient"/>
    <linearGradient id="linear-gradient-33" x1="101.49" y1="106.51" x2="136.1" y2="106.51" xlink:href="#linear-gradient"/>
  </defs>
  <circle class="cls-25" cx="256" cy="256" r="227.75"/>
  <path class="cls-1" d="m256,506c-137.85,0-250-112.15-250-250S118.15,6,256,6s250,112.15,250,250-112.15,250-250,250Zm0-488.88C124.28,17.12,17.12,124.28,17.12,256s107.16,238.88,238.88,238.88,238.88-107.16,238.88-238.88S387.71,17.12,256,17.12Z"/>
  <path class="cls-24" d="m256,494.88c-131.72,0-238.88-107.16-238.88-238.88S124.28,17.12,256,17.12s238.88,107.16,238.88,238.88-107.16,238.88-238.88,238.88Zm0-466.63c-125.59,0-227.75,102.17-227.75,227.75s102.17,227.75,227.75,227.75,227.75-102.17,227.75-227.75S381.59,28.25,256,28.25Z"/>
  <path class="cls-32" d="m201.89,44.37l4.56,7.15c.37.57,1.06.85,1.72.67l8.21-2.13c1.47-.38,2.57,1.34,1.61,2.52l-5.39,6.55c-.43.53-.48,1.27-.11,1.84l4.56,7.15c.82,1.28-.48,2.86-1.9,2.31l-7.89-3.1c-.63-.25-1.35-.06-1.79.46l-5.39,6.55c-.97,1.17-2.87.43-2.78-1.09l.51-8.46c.04-.68-.36-1.31-.99-1.56l-7.89-3.1c-1.42-.56-1.29-2.6.18-2.98l8.21-2.13c.66-.17,1.13-.75,1.17-1.43l.51-8.46c.09-1.52,2.07-2.03,2.89-.75Z"/>
  <path class="cls-19" d="m173.7,431.31l-.38,8.47c-.03.68.38,1.3,1.02,1.54l7.94,2.98c1.42.53,1.33,2.58-.13,2.98l-8.17,2.26c-.66.18-1.12.76-1.15,1.44l-.38,8.47c-.07,1.52-2.04,2.06-2.88.8l-4.67-7.08c-.37-.57-1.07-.83-1.73-.65l-8.17,2.26c-1.47.4-2.59-1.3-1.65-2.49l5.29-6.63c.42-.53.46-1.28.08-1.84l-4.67-7.08c-.84-1.27.44-2.87,1.86-2.34l7.94,2.98c.64.24,1.36.04,1.78-.49l5.29-6.63c.95-1.19,2.86-.47,2.8,1.05Z"/>
  <path class="cls-9" d="m214.74,445.97l.53,8.46c.04.68.52,1.25,1.18,1.42l8.21,2.11c1.47.38,1.6,2.42.19,2.98l-7.89,3.12c-.63.25-1.03.88-.99,1.56l.53,8.46c.09,1.52-1.81,2.27-2.78,1.1l-5.4-6.54c-.43-.52-1.16-.71-1.79-.46l-7.89,3.12c-1.41.56-2.72-1.02-1.9-2.3l4.55-7.16c.36-.57.32-1.32-.12-1.84l-5.4-6.54c-.97-1.17.13-2.9,1.6-2.52l8.21,2.11c.66.17,1.35-.1,1.72-.68l4.55-7.16c.82-1.28,2.8-.77,2.89.74Z"/>
  <path class="cls-20" d="m258.76,450.49l2.62,8.06c.21.65.81,1.09,1.49,1.09h8.48c1.52,0,2.15,1.95.92,2.84l-6.86,4.98c-.55.4-.78,1.11-.57,1.76l2.62,8.06c.47,1.45-1.19,2.65-2.42,1.76l-6.86-4.98c-.55-.4-1.3-.4-1.85,0l-6.86,4.98c-1.23.89-2.89-.31-2.42-1.76l2.62-8.06c.21-.65-.02-1.36-.57-1.76l-6.86-4.98c-1.23-.89-.6-2.84.92-2.84h8.48c.68,0,1.28-.44,1.49-1.09l2.62-8.06c.47-1.45,2.52-1.45,2.99,0Z"/>
  <path class="cls-33" d="m299.8,446.21l4.6,7.12c.37.57,1.06.84,1.72.66l8.19-2.18c1.47-.39,2.58,1.33,1.62,2.51l-5.35,6.58c-.43.53-.47,1.27-.1,1.84l4.6,7.12c.83,1.28-.46,2.87-1.88,2.32l-7.91-3.05c-.63-.24-1.35-.05-1.78.47l-5.35,6.58c-.96,1.18-2.87.44-2.79-1.08l.46-8.47c.04-.68-.37-1.31-1-1.55l-7.91-3.05c-1.42-.55-1.31-2.59.16-2.98l8.19-2.18c.66-.17,1.13-.75,1.16-1.43l.46-8.47c.08-1.52,2.06-2.04,2.89-.77Z"/>
  <path class="cls-22" d="m336.8,433.89l6.05,5.94c.49.48,1.22.59,1.83.27l7.52-3.91c1.35-.7,2.81.73,2.13,2.09l-3.79,7.59c-.3.61-.18,1.34.3,1.82l6.05,5.94c1.08,1.07.17,2.9-1.33,2.67l-8.39-1.26c-.67-.1-1.33.24-1.64.85l-3.79,7.59c-.68,1.36-2.7,1.06-2.95-.44l-1.4-8.36c-.11-.67-.64-1.19-1.32-1.29l-8.39-1.26c-1.5-.23-1.84-2.24-.49-2.95l7.52-3.91c.6-.31.94-.98.82-1.65l-1.4-8.36c-.25-1.5,1.57-2.44,2.65-1.38Z"/>
  <path class="cls-13" d="m252.82,37.07l2.62,8.06c.21.65.81,1.09,1.49,1.09h8.48c1.52,0,2.15,1.95.92,2.84l-6.86,4.98c-.55.4-.78,1.11-.57,1.76l2.62,8.06c.47,1.45-1.19,2.65-2.42,1.76l-6.86-4.98c-.55-.4-1.3-.4-1.85,0l-6.86,4.98c-1.23.89-2.89-.31-2.42-1.76l2.62-8.06c.21-.65-.02-1.36-.57-1.76l-6.86-4.98c-1.23-.89-.6-2.84.92-2.84h8.48c.68,0,1.28-.44,1.49-1.09l2.62-8.06c.47-1.45,2.52-1.45,2.99,0Z"/>
  <path class="cls-12" d="m305.62,41.83l.88,8.43c.07.68.57,1.23,1.23,1.37l8.29,1.77c1.49.32,1.7,2.35.31,2.97l-7.75,3.44c-.62.28-.99.92-.92,1.6l.88,8.43c.16,1.51-1.71,2.34-2.73,1.21l-5.67-6.31c-.45-.51-1.18-.66-1.81-.39l-7.75,3.44c-1.39.62-2.76-.9-2-2.22l4.25-7.34c.34-.59.26-1.33-.19-1.84l-5.67-6.31c-1.02-1.13,0-2.9,1.5-2.59l8.29,1.77c.67.14,1.35-.16,1.69-.75l4.25-7.34c.76-1.32,2.76-.89,2.92.62Z"/>
  <path class="cls-34" d="m352.34,57.85l-1.06,8.41c-.08.67.27,1.33.89,1.62l7.67,3.6c1.38.65,1.12,2.68-.37,2.96l-8.33,1.6c-.67.13-1.18.67-1.26,1.35l-1.06,8.41c-.19,1.51-2.2,1.89-2.93.56l-4.09-7.43c-.33-.6-1-.91-1.67-.78l-8.33,1.6c-1.49.29-2.48-1.51-1.44-2.62l5.8-6.19c.47-.5.56-1.24.23-1.83l-4.09-7.43c-.73-1.33.67-2.83,2.04-2.18l7.67,3.6c.62.29,1.35.15,1.81-.35l5.8-6.19c1.04-1.11,2.89-.24,2.7,1.27Z"/>
  <path d="m258.16,443.71c-102.6,0-186.06-83.47-186.06-186.06s83.47-186.06,186.06-186.06c40.98,0,79.87,13.12,112.47,37.93,31.56,24.02,55.03,58.06,66.11,95.85.37,1.23.72,2.46,1.04,3.68,4.28,15.78,6.44,32.13,6.44,48.6,0,102.6-83.47,186.06-186.06,186.06Zm0-369.7c-101.25,0-183.63,82.38-183.63,183.63s82.38,183.63,183.63,183.63,183.63-82.38,183.63-183.63c0-16.25-2.14-32.39-6.36-47.97-.32-1.21-.66-2.41-1.02-3.62-10.93-37.31-34.11-70.9-65.25-94.61-32.17-24.49-70.56-37.43-111-37.43Z"/>
  <g>
    <path class="cls-35" d="m395.94,123.39l20.98-17.9,6.71,7.87c1.37,1.6,2.25,3.07,2.65,4.4.4,1.33.39,2.65-.02,3.95-.42,1.3-1.1,2.36-2.07,3.18-.9.77-1.95,1.24-3.16,1.43-1.21.19-2.47,0-3.8-.57.71,1.59.91,3.1.59,4.55-.31,1.45-1.08,2.69-2.3,3.73-.98.84-2.07,1.41-3.27,1.71-1.2.3-2.29.35-3.27.13-.98-.22-1.98-.69-3-1.41-1.02-.72-2.1-1.75-3.24-3.09l-6.82-8Zm4.84.67l4.46,5.22c.76.9,1.34,1.5,1.71,1.8.66.54,1.31.91,1.94,1.12.63.2,1.32.22,2.07.06s1.45-.52,2.12-1.09c.78-.67,1.29-1.45,1.53-2.34s.17-1.79-.2-2.7c-.37-.91-1.13-2.03-2.27-3.37l-4.14-4.85-7.21,6.15Zm9.69-8.26l3.87,4.54c1.05,1.23,1.88,2.04,2.5,2.44.81.53,1.61.76,2.41.7.79-.06,1.55-.4,2.29-1.03.7-.6,1.17-1.28,1.41-2.07.24-.79.2-1.57-.13-2.36-.33-.79-1.14-1.93-2.43-3.44l-3.58-4.19-6.34,5.41Z"/>
    <path class="cls-7" d="m413.45,144.48l29.06-5.33,2.05,3.36-17.66,24-2.17-3.55,5.46-7.1-6.01-9.84-8.71,1.77-2.02-3.31Zm13.81.89l4.87,7.98,5.02-6.44c1.52-1.96,2.81-3.51,3.86-4.65-1.69.62-3.45,1.11-5.27,1.48l-8.48,1.63Z"/>
    <path class="cls-4" d="m430.08,173.23l25.57-10.33,1.4,3.47-14.65,21.54,20.08-8.11,1.31,3.24-25.57,10.33-1.4-3.47,14.67-21.55-20.09,8.12-1.31-3.24Z"/>
    <path class="cls-15" d="m441.32,203.47l26.9-6.07.8,3.56-13.34,3.01,16.36,10.35,1.09,4.83-13.45-8.82-13.34,15.39-1.06-4.7,11.45-12.65-5.29-3.43-9.32,2.1-.8-3.56Z"/>
  </g>
  <g class="cls-3">
    <path class="cls-10" d="m256.84,132.53l-177.11,149.52c11.92,88,87.29,155.85,178.56,155.85s162.12-63.86,177.32-148.03l-178.78-157.35Z"/>
    <path class="cls-14" d="m256.68,95.57l79.73,69.35v-22.02h39.63v56.48l62.41,54.28c-2.12-97.71-81.93-176.28-180.15-176.28S82.91,153.33,78.27,248.74l178.42-153.17Z"/>
  </g>
  <g>
    <path class="cls-2" d="m254.06,356.93c.54-.87.81-3.31.81-7.29v-7.5c-.45.27-1.54.54-1.99.54v-.54c1.32-.12,3.64-.9,4.76-1.6h.36v9.09c0,3.94.3,6.44.78,7.29v.36h-4.73v-.36Z"/>
    <path class="cls-5" d="m217.03,393.57c-.6.15-1.29.21-2.02.21-6.5,0-10.54-4.76-10.54-10.9s4.03-10.9,10.54-10.9,10.6,4.76,10.6,10.9c0,4.79-2.47,8.85-6.8,10.3.66,3.43,1.84,6.86,5.15,6.86,1.6,0,2.83-1.26,2.83-2.98,0-1.54-1.14-2.47-2.47-2.47-1.17,0-2.11.57-2.32,1.51l-.3-.21c0-1.23,1.2-2.59,2.62-2.59,1.96,0,3.16,1.72,3.16,4.34,0,2.89-1.78,4.94-4.21,4.94-4.55,0-5.66-4.88-6.23-9Zm-4.12-1.66c-1.05-1.78-.36-5.27,2.02-5.27,1.99,0,2.74,2.08,3.1,4.73l.3.12c1.17-.75,2.11-1.93,2.74-3.49s.96-3.28.96-5.12c0-5.81-2.56-10.27-7.01-10.27s-6.95,4.46-6.95,10.27c0,2.14.39,4.06,1.17,5.72.81,1.66,1.93,2.8,3.4,3.49l.27-.18Zm4.03.93c-.36-2.89-.69-5.36-2.17-5.36-1.9,0-2.02,5.66.27,5.66.69,0,1.32-.09,1.9-.3Z"/>
    <path class="cls-31" d="m228.08,385.98v-5.9c0-4.06-.36-6.53-.87-7.38v-.36h5.42v.36c-.57.84-.87,3.31-.87,7.38v5.9c0,3.97,2.17,6.62,5.57,6.62s5.81-2.68,5.81-6.53v-5.99c0-4.06-.3-6.53-.87-7.38v-.36h2.44v.36c-.51.84-.9,3.31-.9,7.38v5.99c0,4.7-2.8,7.71-7.95,7.71-4.7,0-7.77-3.43-7.77-7.8Z"/>
    <path class="cls-8" d="m246.41,393.06c.51-.84.87-3.37.87-7.35v-5.63c0-4.06-.36-6.53-.87-7.38v-.36h5.42v.36c-.51.84-.87,3.31-.87,7.38v5.63c0,4,.3,6.44.87,7.35v.36h-5.42v-.36Z"/>
    <path class="cls-17" d="m253.67,393.06c.57-.81,1.02-3.37,1.02-7.35v-7.47c0-2.8-.45-4.73-.96-5.54v-.36h5.51v.36c-.03.84.99,3.34,3.16,7.35l6.35,10.93h.27v-10.93c0-4-.39-6.5-.9-7.35v-.36h2.59v.36c-.57.81-.99,3.34-.99,7.35v13.37h-4.76v-.36c.03-.84-.96-3.4-3.16-7.38l-6.11-10.51h-.33v10.54c0,3.97.36,6.5.87,7.35v.36h-2.56v-.36Z"/>
    <path class="cls-23" d="m278.38,393.06c.57-.84.9-3.37.9-7.35v-12.67h-2.71c-2.5,0-3.73,1.2-3.76,3.85h-.39v-4.55h17.4v4.55h-.39c-.03-2.65-1.35-3.85-3.79-3.85h-2.71v12.67c0,4,.3,6.44.87,7.35v.36h-5.42v-.36Z"/>
    <path class="cls-30" d="m288.2,393.06c.84-.84,2.02-3.34,3.43-7.35l2.14-5.63c1.35-4.06,1.9-6.53,1.69-7.38v-.36h4.97v.36c-.27.9.3,3.37,1.69,7.38l2.11,5.63c1.39,4,2.53,6.47,3.46,7.35v.36h-5.45v-.36c.24-.87-.33-3.31-1.72-7.35l-1.45-4c-.9-.18-2.11.42-2.23,1.05.12.21.21.63.21.96,0,.57-.18,1.23-.57,1.23s-.6-.66-.6-1.23c0-.33.09-.75.21-.96-.06-.63-1.35-1.23-2.23-1.05l-1.48,4c-1.35,4-1.9,6.5-1.66,7.35v.36h-2.53v-.36Zm8.4-10.57c.03-.39.27-.78.72-1.14.45-.39.9-.57,1.42-.6l-2.11-5.93h-.33l-2.11,5.93c1.05.03,2.11.93,2.14,1.75h.27Z"/>
  </g>
  <g>
    <path class="cls-21" d="m99.37,366.89l-23.47,14.42-5.41-8.81c-1.1-1.79-1.75-3.38-1.94-4.75-.19-1.37.02-2.67.63-3.89.61-1.22,1.46-2.16,2.53-2.82,1-.62,2.11-.93,3.34-.93s2.44.38,3.66,1.15c-.45-1.68-.42-3.2.12-4.58.53-1.38,1.48-2.49,2.85-3.33,1.1-.67,2.26-1.07,3.49-1.19,1.23-.12,2.31.01,3.24.38.93.37,1.85.99,2.74,1.86.9.87,1.8,2.05,2.72,3.55l5.5,8.95Zm-15.52,5.25l-3.12-5.08c-.85-1.38-1.54-2.31-2.09-2.8-.72-.65-1.48-1-2.27-1.07-.79-.07-1.6.15-2.42.66-.78.48-1.35,1.09-1.71,1.83-.36.74-.44,1.52-.23,2.35.21.83.83,2.09,1.86,3.77l2.88,4.69,7.09-4.36Zm10.84-6.66l-3.59-5.84c-.62-1-1.09-1.69-1.41-2.04-.57-.64-1.15-1.1-1.74-1.4-.59-.3-1.27-.42-2.03-.38-.76.04-1.52.29-2.26.75-.87.54-1.5,1.23-1.87,2.07-.37.85-.44,1.75-.21,2.7.23.96.8,2.18,1.72,3.68l3.33,5.43,8.07-4.96Z"/>
    <path class="cls-18" d="m84.31,340.61l-25.34,10.81-1.43-3.35,22.35-9.53-5.32-12.48,2.99-1.27,6.75,15.83Z"/>
    <path class="cls-36" d="m61.77,320.72c-4.43,1.12-8.21.8-11.31-.95-3.11-1.75-5.14-4.51-6.09-8.27-.62-2.46-.59-4.84.09-7.11.68-2.28,1.94-4.2,3.79-5.77,1.85-1.57,4.1-2.69,6.78-3.36,2.71-.68,5.27-.75,7.68-.19,2.41.55,4.42,1.69,6.03,3.42,1.6,1.73,2.7,3.75,3.28,6.07.63,2.51.59,4.91-.12,7.2-.72,2.29-2,4.21-3.84,5.75s-3.94,2.62-6.28,3.21Zm-.86-3.66c3.22-.81,5.54-2.32,6.95-4.51,1.42-2.2,1.8-4.6,1.14-7.21-.67-2.66-2.16-4.61-4.46-5.86-2.3-1.25-5.17-1.44-8.61-.57-2.17.55-3.98,1.39-5.42,2.54-1.44,1.14-2.42,2.54-2.96,4.17-.54,1.64-.58,3.34-.14,5.1.63,2.5,2.03,4.44,4.21,5.81,2.17,1.37,5.27,1.55,9.29.54Z"/>
    <path class="cls-26" d="m56.02,263.9l.65-3.7c3.04.55,5.42,1.75,7.13,3.62,1.71,1.87,2.67,4.23,2.88,7.09.21,2.96-.21,5.41-1.29,7.36-1.07,1.94-2.71,3.48-4.93,4.62-2.22,1.13-4.64,1.8-7.26,1.99-2.86.21-5.4-.16-7.61-1.1-2.21-.94-3.94-2.38-5.19-4.32-1.25-1.94-1.97-4.12-2.14-6.54-.2-2.75.33-5.11,1.6-7.09,1.26-1.98,3.14-3.42,5.62-4.34l1.1,3.52c-1.95.78-3.34,1.81-4.16,3.09s-1.17,2.83-1.04,4.67c.15,2.11.79,3.84,1.9,5.18s2.54,2.24,4.29,2.69c1.75.45,3.53.61,5.34.48,2.34-.17,4.35-.66,6.05-1.46,1.69-.81,2.92-1.96,3.68-3.46.76-1.5,1.08-3.09.95-4.76-.15-2.04-.86-3.72-2.14-5.05-1.28-1.33-3.09-2.15-5.44-2.49Z"/>
    <path class="cls-6" d="m65.68,250.68l-27.43-2.53.34-3.63,13.6,1.26-12.35-14.88.45-4.92,10.05,12.53,17.42-10.51-.44,4.79-14.79,8.49,3.96,4.9,9.5.88-.33,3.63Z"/>
    <path class="cls-28" d="m64.85,199.09l1.81-3.29c2.7,1.49,4.57,3.4,5.59,5.72,1.02,2.32,1.17,4.86.44,7.64-.75,2.87-1.94,5.06-3.58,6.55-1.64,1.49-3.69,2.42-6.15,2.78-2.46.36-4.97.21-7.51-.46-2.78-.72-5.06-1.89-6.85-3.49-1.79-1.6-2.97-3.52-3.53-5.76-.56-2.24-.54-4.53.08-6.88.7-2.67,1.96-4.73,3.79-6.19s4.07-2.23,6.72-2.31l-.09,3.69c-2.1.11-3.75.64-4.94,1.58-1.19.95-2.02,2.31-2.49,4.09-.53,2.05-.49,3.89.13,5.52.62,1.63,1.69,2.94,3.2,3.93,1.51.99,3.14,1.71,4.9,2.17,2.27.59,4.33.78,6.19.56,1.86-.22,3.39-.92,4.59-2.09,1.2-1.18,2.01-2.57,2.44-4.2.52-1.98.38-3.8-.4-5.46s-2.23-3.04-4.35-4.11Z"/>
    <path class="cls-29" d="m78.28,189.42l-25.12-11.3,1.5-3.33,10.32,4.64,5.87-13.06-10.32-4.64,1.49-3.32,25.12,11.3-1.5,3.32-11.84-5.33-5.87,13.06,11.84,5.33-1.5,3.32Z"/>
    <path class="cls-16" d="m90.66,162.97l-17.14-24.02,2.17-3.28,29.2,5.79-2.29,3.46-8.73-1.92-6.35,9.61,5.29,7.12-2.14,3.23Zm-5.05-12.87l5.15-7.79-7.95-1.81c-2.42-.55-4.36-1.05-5.84-1.52,1.28,1.27,2.47,2.65,3.57,4.14l5.07,6.98Z"/>
    <path class="cls-11" d="m110.41,135.21l-21.01-17.82,2.36-2.78,21,17.82-2.36,2.78Z"/>
    <path class="cls-27" d="m120.1,123.99l-18.61-20.31,2.76-2.53,25.28,6.17-14.61-15.95,2.58-2.36,18.61,20.31-2.76,2.53-25.29-6.18,14.62,15.96-2.58,2.36Z"/>
  </g>
</svg>