<?xml version="1.0" encoding="UTF-8"?>
<svg id="Layer_2" data-name="Layer 2" xmlns="http://www.w3.org/2000/svg" xmlns:xlink="http://www.w3.org/1999/xlink" viewBox="0 0 64 64">
  <defs>
    <style>
      .cls-1 {
        fill: url(#linear-gradient-2);
      }

      .cls-2 {
        fill: url(#linear-gradient-17);
      }

      .cls-3 {
        opacity: .5;
      }

      .cls-4 {
        fill: url(#linear-gradient-15);
      }

      .cls-5 {
        fill: url(#linear-gradient-18);
      }

      .cls-6 {
        fill: url(#linear-gradient-28);
      }

      .cls-7 {
        fill: url(#linear-gradient-14);
      }

      .cls-8 {
        fill: url(#linear-gradient-20);
      }

      .cls-9 {
        fill: url(#linear-gradient-6);
      }

      .cls-10 {
        fill: #7bc623;
      }

      .cls-11 {
        fill: url(#linear-gradient-32);
      }

      .cls-12 {
        fill: url(#linear-gradient-11);
      }

      .cls-13 {
        fill: url(#linear-gradient-10);
      }

      .cls-14 {
        fill: #00a9ec;
      }

      .cls-15 {
        fill: url(#linear-gradient-16);
      }

      .cls-16 {
        fill: url(#linear-gradient-31);
      }

      .cls-17 {
        fill: url(#linear-gradient-21);
      }

      .cls-18 {
        fill: url(#linear-gradient-25);
      }

      .cls-19 {
        fill: url(#linear-gradient-5);
      }

      .cls-20 {
        fill: url(#linear-gradient-7);
      }

      .cls-21 {
        fill: url(#linear-gradient-24);
      }

      .cls-22 {
        fill: url(#linear-gradient-9);
      }

      .cls-23 {
        fill: url(#linear-gradient-22);
      }

      .cls-24 {
        fill: url(#linear-gradient-3);
      }

      .cls-25 {
        fill: url(#linear-gradient);
      }

      .cls-26 {
        fill: url(#linear-gradient-27);
      }

      .cls-27 {
        fill: url(#linear-gradient-33);
      }

      .cls-28 {
        fill: url(#linear-gradient-29);
      }

      .cls-29 {
        fill: url(#linear-gradient-30);
      }

      .cls-30 {
        fill: url(#linear-gradient-23);
      }

      .cls-31 {
        fill: url(#linear-gradient-19);
      }

      .cls-32 {
        fill: url(#linear-gradient-4);
      }

      .cls-33 {
        fill: url(#linear-gradient-8);
      }

      .cls-34 {
        fill: url(#linear-gradient-12);
      }

      .cls-35 {
        fill: url(#linear-gradient-13);
      }

      .cls-36 {
        fill: url(#linear-gradient-26);
      }
    </style>
    <linearGradient id="linear-gradient" x1="31.64" y1="4.67" x2="32.36" y2="59.33" gradientUnits="userSpaceOnUse">
      <stop offset="0" stop-color="#000"/>
      <stop offset=".1" stop-color="#222"/>
      <stop offset=".28" stop-color="#5c5c5c"/>
      <stop offset=".45" stop-color="#8c8d8c"/>
      <stop offset=".61" stop-color="#b2b2b2"/>
      <stop offset=".76" stop-color="#cccdcc"/>
      <stop offset=".9" stop-color="#dddedd"/>
      <stop offset="1" stop-color="#e3e4e3"/>
    </linearGradient>
    <linearGradient id="linear-gradient-2" x1="24.17" y1="2.79" x2="39.39" y2="59.58" xlink:href="#linear-gradient"/>
    <linearGradient id="linear-gradient-3" x1="35.05" y1="61.02" x2="29.14" y2="4.8" gradientUnits="userSpaceOnUse">
      <stop offset="0" stop-color="#000"/>
      <stop offset=".06" stop-color="#171717"/>
      <stop offset=".22" stop-color="#545554"/>
      <stop offset=".38" stop-color="#878887"/>
      <stop offset=".53" stop-color="#afafaf"/>
      <stop offset=".66" stop-color="#cbcccb"/>
      <stop offset=".78" stop-color="#dcdddc"/>
      <stop offset=".87" stop-color="#e3e4e3"/>
    </linearGradient>
    <linearGradient id="linear-gradient-4" x1="73.52" y1="-25.04" x2="74.78" y2="-21.41" gradientTransform="translate(-46.93 35.59) rotate(-3.2)" gradientUnits="userSpaceOnUse">
      <stop offset=".04" stop-color="#fff"/>
      <stop offset=".42" stop-color="#fff"/>
      <stop offset=".5" stop-color="#cdcdcd"/>
      <stop offset=".64" stop-color="#767676"/>
      <stop offset=".76" stop-color="#363636"/>
      <stop offset=".84" stop-color="#0f0f0f"/>
      <stop offset=".88" stop-color="#000"/>
      <stop offset="1" stop-color="#000"/>
    </linearGradient>
    <linearGradient id="linear-gradient-5" x1="21.67" y1="56.65" x2="20.98" y2="52.04" gradientUnits="userSpaceOnUse">
      <stop offset="0" stop-color="#000"/>
      <stop offset=".28" stop-color="#000"/>
      <stop offset=".32" stop-color="#3d3d3d"/>
      <stop offset=".35" stop-color="#777"/>
      <stop offset=".39" stop-color="#a8a8a8"/>
      <stop offset=".42" stop-color="#cdcdcd"/>
      <stop offset=".45" stop-color="#e8e8e8"/>
      <stop offset=".47" stop-color="#f9f9f9"/>
      <stop offset=".49" stop-color="#fff"/>
      <stop offset="1" stop-color="#fff"/>
    </linearGradient>
    <linearGradient id="linear-gradient-6" x1="26.88" y1="58.33" x2="25.91" y2="53.54" xlink:href="#linear-gradient-5"/>
    <linearGradient id="linear-gradient-7" x1="33.32" y1="58.95" x2="30.57" y2="54.62" xlink:href="#linear-gradient-5"/>
    <linearGradient id="linear-gradient-8" x1="38.09" y1="57.98" x2="36.98" y2="54.91" xlink:href="#linear-gradient-5"/>
    <linearGradient id="linear-gradient-9" x1="42.2" y1="57.12" x2="42.48" y2="52.84" xlink:href="#linear-gradient-5"/>
    <linearGradient id="linear-gradient-10" x1="31.2" y1="5.45" x2="31.72" y2="8.85" gradientTransform="matrix(1,0,0,1,0,0)" xlink:href="#linear-gradient-4"/>
    <linearGradient id="linear-gradient-11" x1="97.68" y1="-38.7" x2="98.19" y2="-35.58" gradientTransform="translate(-57.7 51.55) rotate(-3.99)" xlink:href="#linear-gradient-4"/>
    <linearGradient id="linear-gradient-12" x1="42.17" y1="7.89" x2="42.87" y2="11.01" gradientTransform="matrix(1,0,0,1,0,0)" xlink:href="#linear-gradient-4"/>
    <linearGradient id="linear-gradient-13" x1="48.79" y1="15.77" x2="52.47" y2="15.77" xlink:href="#linear-gradient"/>
    <linearGradient id="linear-gradient-14" x1="50.89" y1="19.62" x2="54.63" y2="19.62" xlink:href="#linear-gradient"/>
    <linearGradient id="linear-gradient-15" x1="52.89" y1="22.66" x2="56.94" y2="22.66" xlink:href="#linear-gradient"/>
    <linearGradient id="linear-gradient-16" x1="54.24" y1="26.67" x2="58.06" y2="26.67" xlink:href="#linear-gradient"/>
    <linearGradient id="linear-gradient-17" x1="31.98" y1="35.31" x2="31.98" y2="66.13" xlink:href="#linear-gradient-3"/>
    <linearGradient id="linear-gradient-18" x1="27.2" y1="35.31" x2="27.2" y2="66.13" xlink:href="#linear-gradient-3"/>
    <linearGradient id="linear-gradient-19" x1="29.59" y1="35.31" x2="29.59" y2="66.13" xlink:href="#linear-gradient-3"/>
    <linearGradient id="linear-gradient-20" x1="31.17" y1="35.31" x2="31.17" y2="66.13" xlink:href="#linear-gradient-3"/>
    <linearGradient id="linear-gradient-21" x1="32.74" y1="35.31" x2="32.74" y2="66.13" xlink:href="#linear-gradient-3"/>
    <linearGradient id="linear-gradient-22" x1="35.01" y1="35.31" x2="35.01" y2="66.13" xlink:href="#linear-gradient-3"/>
    <linearGradient id="linear-gradient-23" x1="37.03" y1="35.31" x2="37.03" y2="66.13" xlink:href="#linear-gradient-3"/>
    <linearGradient id="linear-gradient-24" x1="9.5" y1="45.29" x2="13.2" y2="45.29" xlink:href="#linear-gradient"/>
    <linearGradient id="linear-gradient-25" x1="8.18" y1="41.85" x2="11.4" y2="41.85" xlink:href="#linear-gradient"/>
    <linearGradient id="linear-gradient-26" x1="6.55" y1="38.24" x2="9.98" y2="38.24" xlink:href="#linear-gradient"/>
    <linearGradient id="linear-gradient-27" x1="5.87" y1="33.99" x2="9.29" y2="33.99" xlink:href="#linear-gradient"/>
    <linearGradient id="linear-gradient-28" x1="5.87" y1="29.88" x2="9.41" y2="29.88" xlink:href="#linear-gradient"/>
    <linearGradient id="linear-gradient-29" x1="6.64" y1="26.01" x2="10.06" y2="26.01" xlink:href="#linear-gradient"/>
    <linearGradient id="linear-gradient-30" x1="7.66" y1="22.15" x2="11.74" y2="22.15" xlink:href="#linear-gradient"/>
    <linearGradient id="linear-gradient-31" x1="10.1" y1="19.2" x2="13.87" y2="19.2" xlink:href="#linear-gradient"/>
    <linearGradient id="linear-gradient-32" x1="12.01" y1="16.27" x2="14.81" y2="16.27" xlink:href="#linear-gradient"/>
    <linearGradient id="linear-gradient-33" x1="13.46" y1="14.06" x2="17.61" y2="14.06" xlink:href="#linear-gradient"/>
  </defs>
  <circle class="cls-25" cx="32" cy="32" r="27.33"/>
  <path class="cls-1" d="m32,62c-16.54,0-30-13.46-30-30S15.46,2,32,2s30,13.46,30,30-13.46,30-30,30Zm0-58.67C16.19,3.33,3.33,16.19,3.33,32s12.86,28.67,28.67,28.67,28.67-12.86,28.67-28.67S47.81,3.33,32,3.33Z"/>
  <path class="cls-24" d="m32,60.67c-15.81,0-28.67-12.86-28.67-28.67S16.19,3.33,32,3.33s28.67,12.86,28.67,28.67-12.86,28.67-28.67,28.67Zm0-56c-15.07,0-27.33,12.26-27.33,27.33s12.26,27.33,27.33,27.33,27.33-12.26,27.33-27.33S47.07,4.67,32,4.67Z"/>
  <path class="cls-32" d="m25.51,6.6l.55.86c.04.07.13.1.21.08l.98-.26c.18-.05.31.16.19.3l-.65.79c-.05.06-.06.15-.01.22l.55.86c.1.15-.06.34-.23.28l-.95-.37c-.08-.03-.16,0-.21.06l-.65.79c-.12.14-.34.05-.33-.13l.06-1.02c0-.08-.04-.16-.12-.19l-.95-.37c-.17-.07-.16-.31.02-.36l.98-.26c.08-.02.14-.09.14-.17l.06-1.02c.01-.18.25-.24.35-.09Z"/>
  <path class="cls-19" d="m22.12,53.04l-.05,1.02c0,.08.05.16.12.18l.95.36c.17.06.16.31-.02.36l-.98.27c-.08.02-.13.09-.14.17l-.05,1.02c0,.18-.24.25-.35.1l-.56-.85c-.04-.07-.13-.1-.21-.08l-.98.27c-.18.05-.31-.16-.2-.3l.63-.8c.05-.06.05-.15,0-.22l-.56-.85c-.1-.15.05-.34.22-.28l.95.36c.08.03.16,0,.21-.06l.63-.8c.11-.14.34-.06.34.13Z"/>
  <path class="cls-9" d="m27.05,54.8l.06,1.02c0,.08.06.15.14.17l.99.25c.18.05.19.29.02.36l-.95.37c-.08.03-.12.11-.12.19l.06,1.02c.01.18-.22.27-.33.13l-.65-.78c-.05-.06-.14-.09-.21-.06l-.95.37c-.17.07-.33-.12-.23-.28l.55-.86c.04-.07.04-.16-.01-.22l-.65-.78c-.12-.14.02-.35.19-.3l.99.25c.08.02.16-.01.21-.08l.55-.86c.1-.15.34-.09.35.09Z"/>
  <path class="cls-20" d="m32.33,55.34l.31.97c.03.08.1.13.18.13h1.02c.18,0,.26.23.11.34l-.82.6c-.07.05-.09.13-.07.21l.31.97c.06.17-.14.32-.29.21l-.82-.6c-.07-.05-.16-.05-.22,0l-.82.6c-.15.11-.35-.04-.29-.21l.31-.97c.03-.08,0-.16-.07-.21l-.82-.6c-.15-.11-.07-.34.11-.34h1.02c.08,0,.15-.05.18-.13l.31-.97c.06-.17.3-.17.36,0Z"/>
  <path class="cls-33" d="m37.26,54.82l.55.85c.04.07.13.1.21.08l.98-.26c.18-.05.31.16.19.3l-.64.79c-.05.06-.06.15-.01.22l.55.85c.1.15-.06.34-.23.28l-.95-.37c-.08-.03-.16,0-.21.06l-.64.79c-.12.14-.34.05-.33-.13l.06-1.02c0-.08-.04-.16-.12-.19l-.95-.37c-.17-.07-.16-.31.02-.36l.98-.26c.08-.02.14-.09.14-.17l.06-1.02c0-.18.25-.25.35-.09Z"/>
  <path class="cls-22" d="m41.7,53.35l.73.71c.06.06.15.07.22.03l.9-.47c.16-.08.34.09.26.25l-.45.91c-.04.07-.02.16.04.22l.73.71c.13.13.02.35-.16.32l-1.01-.15c-.08-.01-.16.03-.2.1l-.45.91c-.08.16-.32.13-.35-.05l-.17-1c-.01-.08-.08-.14-.16-.16l-1.01-.15c-.18-.03-.22-.27-.06-.35l.9-.47c.07-.04.11-.12.1-.2l-.17-1c-.03-.18.19-.29.32-.17Z"/>
  <path class="cls-13" d="m31.62,5.73l.31.97c.03.08.1.13.18.13h1.02c.18,0,.26.23.11.34l-.82.6c-.07.05-.09.13-.07.21l.31.97c.06.17-.14.32-.29.21l-.82-.6c-.07-.05-.16-.05-.22,0l-.82.6c-.15.11-.35-.04-.29-.21l.31-.97c.03-.08,0-.16-.07-.21l-.82-.6c-.15-.11-.07-.34.11-.34h1.02c.08,0,.15-.05.18-.13l.31-.97c.06-.17.3-.17.36,0Z"/>
  <path class="cls-12" d="m37.95,6.3l.11,1.01c0,.08.07.15.15.16l1,.21c.18.04.2.28.04.36l-.93.41c-.07.03-.12.11-.11.19l.11,1.01c.02.18-.21.28-.33.15l-.68-.76c-.05-.06-.14-.08-.22-.05l-.93.41c-.17.07-.33-.11-.24-.27l.51-.88c.04-.07.03-.16-.02-.22l-.68-.76c-.12-.14,0-.35.18-.31l1,.21c.08.02.16-.02.2-.09l.51-.88c.09-.16.33-.11.35.07Z"/>
  <path class="cls-34" d="m43.56,8.22l-.13,1.01c-.01.08.03.16.11.19l.92.43c.17.08.13.32-.04.36l-1,.19c-.08.02-.14.08-.15.16l-.13,1.01c-.02.18-.26.23-.35.07l-.49-.89c-.04-.07-.12-.11-.2-.09l-1,.19c-.18.03-.3-.18-.17-.31l.7-.74c.06-.06.07-.15.03-.22l-.49-.89c-.09-.16.08-.34.25-.26l.92.43c.07.03.16.02.22-.04l.7-.74c.12-.13.35-.03.32.15Z"/>
  <path d="m32.26,54.53c-12.31,0-22.33-10.02-22.33-22.33s10.02-22.33,22.33-22.33c4.92,0,9.58,1.57,13.5,4.55,3.79,2.88,6.6,6.97,7.93,11.5.04.15.09.29.12.44.51,1.89.77,3.86.77,5.83,0,12.31-10.02,22.33-22.33,22.33Zm0-44.36c-12.15,0-22.04,9.89-22.04,22.04s9.89,22.04,22.04,22.04,22.04-9.89,22.04-22.04c0-1.95-.26-3.89-.76-5.76-.04-.15-.08-.29-.12-.43-1.31-4.48-4.09-8.51-7.83-11.35-3.86-2.94-8.47-4.49-13.32-4.49Z"/>
  <g>
    <path class="cls-35" d="m48.79,16.09l2.52-2.15.81.94c.16.19.27.37.32.53.05.16.05.32,0,.47-.05.16-.13.28-.25.38-.11.09-.23.15-.38.17-.14.02-.3,0-.46-.07.09.19.11.37.07.55-.04.17-.13.32-.28.45-.12.1-.25.17-.39.21s-.27.04-.39.02c-.12-.03-.24-.08-.36-.17-.12-.09-.25-.21-.39-.37l-.82-.96Zm.58.08l.53.63c.09.11.16.18.21.22.08.06.16.11.23.13.08.02.16.03.25,0s.17-.06.25-.13c.09-.08.15-.17.18-.28s.02-.22-.02-.32c-.04-.11-.14-.24-.27-.4l-.5-.58-.87.74Zm1.16-.99l.46.54c.13.15.23.25.3.29.1.06.19.09.29.08.09,0,.19-.05.27-.12.08-.07.14-.15.17-.25s.02-.19-.02-.28c-.04-.09-.14-.23-.29-.41l-.43-.5-.76.65Z"/>
    <path class="cls-7" d="m50.89,18.62l3.49-.64.25.4-2.12,2.88-.26-.43.65-.85-.72-1.18-1.04.21-.24-.4Zm1.66.11l.58.96.6-.77c.18-.23.34-.42.46-.56-.2.07-.41.13-.63.18l-1.02.2Z"/>
    <path class="cls-4" d="m52.89,22.07l3.07-1.24.17.42-1.76,2.58,2.41-.97.16.39-3.07,1.24-.17-.42,1.76-2.59-2.41.97-.16-.39Z"/>
    <path class="cls-15" d="m54.24,25.7l3.23-.73.1.43-1.6.36,1.96,1.24.13.58-1.61-1.06-1.6,1.85-.13-.56,1.37-1.52-.63-.41-1.12.25-.1-.43Z"/>
  </g>
  <g class="cls-3">
    <path class="cls-10" d="m32.1,17.18l-21.25,17.94c1.43,10.56,10.48,18.7,21.43,18.7s19.45-7.66,21.28-17.76l-21.45-18.88Z"/>
    <path class="cls-14" d="m32.08,12.75l9.57,8.32v-2.64h4.76v6.78l7.49,6.51c-.25-11.73-9.83-21.15-21.62-21.15S11.23,19.68,10.67,31.13l21.41-18.38Z"/>
  </g>
  <g>
    <path class="cls-2" d="m31.77,44.11c.07-.1.1-.4.1-.87v-.9c-.05.03-.18.07-.24.07v-.07c.16-.01.44-.11.57-.19h.04v1.09c0,.47.04.77.09.87v.04h-.57v-.04Z"/>
    <path class="cls-5" d="m27.32,48.51c-.07.02-.16.03-.24.03-.78,0-1.26-.57-1.26-1.31s.48-1.31,1.26-1.31,1.27.57,1.27,1.31c0,.57-.3,1.06-.82,1.24.08.41.22.82.62.82.19,0,.34-.15.34-.36,0-.18-.14-.3-.3-.3-.14,0-.25.07-.28.18l-.04-.03c0-.15.14-.31.31-.31.23,0,.38.21.38.52,0,.35-.21.59-.51.59-.55,0-.68-.59-.75-1.08Zm-.49-.2c-.13-.21-.04-.63.24-.63.24,0,.33.25.37.57h.04c.14-.08.25-.22.33-.4s.12-.39.12-.61c0-.7-.31-1.23-.84-1.23s-.83.53-.83,1.23c0,.26.05.49.14.69.1.2.23.34.41.42l.03-.02Zm.48.11c-.04-.35-.08-.64-.26-.64-.23,0-.24.68.03.68.08,0,.16-.01.23-.04Z"/>
    <path class="cls-31" d="m28.65,47.6v-.71c0-.49-.04-.78-.1-.89v-.04h.65v.04c-.07.1-.1.4-.1.89v.71c0,.48.26.79.67.79s.7-.32.7-.78v-.72c0-.49-.04-.78-.1-.89v-.04h.29v.04c-.06.1-.11.4-.11.89v.72c0,.56-.34.92-.95.92-.56,0-.93-.41-.93-.94Z"/>
    <path class="cls-8" d="m30.85,48.45c.06-.1.1-.4.1-.88v-.68c0-.49-.04-.78-.1-.89v-.04h.65v.04c-.06.1-.1.4-.1.89v.68c0,.48.04.77.1.88v.04h-.65v-.04Z"/>
    <path class="cls-17" d="m31.72,48.45c.07-.1.12-.4.12-.88v-.9c0-.34-.05-.57-.12-.66v-.04h.66v.04c0,.1.12.4.38.88l.76,1.31h.03v-1.31c0-.48-.05-.78-.11-.88v-.04h.31v.04c-.07.1-.12.4-.12.88v1.6h-.57v-.04c0-.1-.12-.41-.38-.89l-.73-1.26h-.04v1.26c0,.48.04.78.1.88v.04h-.31v-.04Z"/>
    <path class="cls-23" d="m34.69,48.45c.07-.1.11-.4.11-.88v-1.52h-.33c-.3,0-.45.14-.45.46h-.05v-.55h2.09v.55h-.05c0-.32-.16-.46-.46-.46h-.33v1.52c0,.48.04.77.1.88v.04h-.65v-.04Z"/>
    <path class="cls-30" d="m35.86,48.45c.1-.1.24-.4.41-.88l.26-.68c.16-.49.23-.78.2-.89v-.04h.6v.04c-.03.11.04.4.2.89l.25.68c.17.48.3.78.42.88v.04h-.65v-.04c.03-.1-.04-.4-.21-.88l-.17-.48c-.11-.02-.25.05-.27.13.01.03.03.08.03.12,0,.07-.02.15-.07.15s-.07-.08-.07-.15c0-.04.01-.09.03-.12,0-.08-.16-.15-.27-.13l-.18.48c-.16.48-.23.78-.2.88v.04h-.3v-.04Zm1.01-1.27s.03-.09.09-.14c.05-.05.11-.07.17-.07l-.25-.71h-.04l-.25.71c.13,0,.25.11.26.21h.03Z"/>
  </g>
  <g>
    <path class="cls-21" d="m13.2,45.31l-2.82,1.73-.65-1.06c-.13-.22-.21-.41-.23-.57-.02-.16,0-.32.08-.47.07-.15.17-.26.3-.34.12-.07.25-.11.4-.11s.29.05.44.14c-.05-.2-.05-.38.01-.55.06-.17.18-.3.34-.4.13-.08.27-.13.42-.14.15-.01.28,0,.39.05.11.04.22.12.33.22.11.1.22.25.33.43l.66,1.07Zm-1.86.63l-.37-.61c-.1-.17-.19-.28-.25-.34-.09-.08-.18-.12-.27-.13-.09,0-.19.02-.29.08-.09.06-.16.13-.21.22-.04.09-.05.18-.03.28.02.1.1.25.22.45l.35.56.85-.52Zm1.3-.8l-.43-.7c-.07-.12-.13-.2-.17-.25-.07-.08-.14-.13-.21-.17s-.15-.05-.24-.05c-.09,0-.18.03-.27.09-.1.06-.18.15-.22.25-.04.1-.05.21-.03.32.03.11.1.26.21.44l.4.65.97-.59Z"/>
    <path class="cls-18" d="m11.4,42.15l-3.04,1.3-.17-.4,2.68-1.14-.64-1.5.36-.15.81,1.9Z"/>
    <path class="cls-36" d="m8.69,39.77c-.53.13-.98.1-1.36-.11-.37-.21-.62-.54-.73-.99-.07-.3-.07-.58.01-.85.08-.27.23-.5.45-.69.22-.19.49-.32.81-.4.33-.08.63-.09.92-.02s.53.2.72.41c.19.21.32.45.39.73.08.3.07.59-.01.86-.09.27-.24.5-.46.69s-.47.31-.75.39Zm-.1-.44c.39-.1.66-.28.83-.54.17-.26.22-.55.14-.87-.08-.32-.26-.55-.54-.7-.28-.15-.62-.17-1.03-.07-.26.07-.48.17-.65.3-.17.14-.29.3-.36.5-.06.2-.07.4-.02.61.08.3.24.53.5.7.26.16.63.19,1.11.06Z"/>
    <path class="cls-26" d="m8,32.95l.08-.44c.36.07.65.21.86.43.21.22.32.51.35.85.03.36-.03.65-.15.88-.13.23-.33.42-.59.55-.27.14-.56.22-.87.24-.34.02-.65-.02-.91-.13-.27-.11-.47-.29-.62-.52-.15-.23-.24-.49-.26-.79-.02-.33.04-.61.19-.85.15-.24.38-.41.67-.52l.13.42c-.23.09-.4.22-.5.37s-.14.34-.12.56c.02.25.09.46.23.62s.31.27.52.32c.21.05.42.07.64.06.28-.02.52-.08.73-.18.2-.1.35-.24.44-.42.09-.18.13-.37.11-.57-.02-.24-.1-.45-.26-.61-.15-.16-.37-.26-.65-.3Z"/>
    <path class="cls-6" d="m9.16,31.36l-3.29-.3.04-.44,1.63.15-1.48-1.79.05-.59,1.21,1.5,2.09-1.26-.05.57-1.77,1.02.48.59,1.14.11-.04.44Z"/>
    <path class="cls-28" d="m9.06,25.17l.22-.4c.32.18.55.41.67.69.12.28.14.58.05.92-.09.34-.23.61-.43.79-.2.18-.44.29-.74.33-.3.04-.6.02-.9-.05-.33-.09-.61-.23-.82-.42-.21-.19-.36-.42-.42-.69-.07-.27-.06-.54,0-.83.08-.32.24-.57.46-.74s.49-.27.81-.28v.44c-.26.01-.46.08-.6.19-.14.11-.24.28-.3.49-.06.25-.06.47.02.66.07.2.2.35.38.47.18.12.38.21.59.26.27.07.52.09.74.07.22-.03.41-.11.55-.25.14-.14.24-.31.29-.5.06-.24.05-.46-.05-.66s-.27-.36-.52-.49Z"/>
    <path class="cls-29" d="m10.67,24.01l-3.01-1.36.18-.4,1.24.56.7-1.57-1.24-.56.18-.4,3.01,1.36-.18.4-1.42-.64-.7,1.57,1.42.64-.18.4Z"/>
    <path class="cls-16" d="m12.16,20.84l-2.06-2.88.26-.39,3.5.7-.27.42-1.05-.23-.76,1.15.63.85-.26.39Zm-.61-1.54l.62-.93-.95-.22c-.29-.07-.52-.13-.7-.18.15.15.3.32.43.5l.61.84Z"/>
    <path class="cls-11" d="m14.53,17.5l-2.52-2.14.28-.33,2.52,2.14-.28.33Z"/>
    <path class="cls-27" d="m15.69,16.16l-2.23-2.44.33-.3,3.03.74-1.75-1.91.31-.28,2.23,2.44-.33.3-3.03-.74,1.75,1.92-.31.28Z"/>
  </g>
</svg>