<?xml version="1.0" encoding="UTF-8"?>
<svg id="Layer_2" data-name="Layer 2" xmlns="http://www.w3.org/2000/svg" viewBox="0 0 109 40">
  <defs>
    <style>
      .cls-1 {
        fill: #fff;
      }

      .cls-2 {
        fill: #95c14a;
      }
    </style>
  </defs>
  <g>
    <path class="cls-1" d="m36.24,38.71l-2.23-2.23c2.81-2.92,4.54-6.9,4.54-11.28,0-8.4-6.37-15.33-14.51-16.17-.54-.05-1.08-.08-1.63-.08-8.93,0-16.16,7.28-16.16,16.25,0,6.58,3.89,12.25,9.49,14.8h13.33s0,0,0,0h-.01c1.12-.51,2.17-1.15,3.14-1.9l1.9,1.9h0,0s2.43,0,2.43,0l.02-.03s-.01,0-.02,0c.15-.43.06-.92-.29-1.26Zm-4.04-4.05l-4.68-4.68c-.24-.24-.54-.35-.85-.35s-.62.12-.86.36c-.47.48-.47,1.24,0,1.72l4.56,4.56c-2.25,1.65-5.01,2.61-8,2.61-7.52,0-13.62-6.13-13.62-13.68s6.1-13.68,13.62-13.68,13.62,6.13,13.62,13.68c0,3.67-1.44,7.01-3.78,9.47Z"/>
    <path d="m32.2,38.09c-.97.75-2.02,1.39-3.14,1.9h5.04l-1.9-1.9Z"/>
    <path class="cls-2" d="m44.49,21.16L24.67.94c-1.22-1.24-3.22-1.25-4.44,0L.24,21.22c-.5.51-.14,1.38.57,1.38h1.2c1.82,0,3.29,1.48,3.29,3.31v10.77c0,1.83,1.47,3.31,3.29,3.31h7.08c-5.59-2.56-9.49-8.23-9.49-14.8,0-8.96,7.26-16.26,16.18-16.26.56,0,1.12.03,1.66.09,8.14.84,14.51,7.77,14.51,16.17,0,4.38-1.73,8.35-4.54,11.28l2.23,2.23c.34.34.44.83.29,1.26,0,0,.01,0,.02,0,1.52-.21,2.7-1.51,2.7-3.1v-10.37c0-2.15,1.73-3.89,3.87-3.89h.78c.75,0,1.13-.91.6-1.45Z"/>
    <path d="m22.37,11.51c-7.52,0-13.62,6.13-13.62,13.68s6.1,13.68,13.62,13.68c2.99,0,5.76-.97,8-2.61l-4.56-4.56c-.47-.47-.47-1.24,0-1.72.24-.24.55-.36.86-.36s.62.12.85.35l4.68,4.68c2.34-2.46,3.78-5.79,3.78-9.47,0-7.56-6.1-13.68-13.62-13.68Z"/>
  </g>
  <g>
    <path class="cls-2" d="m55.64,10.25c-.45-.59-1.33-1.02-2.16-1.02-.97,0-2.08.47-2.08,1.62,0,1.09.92,1.41,2.25,1.82,1.51.47,3.45,1.14,3.45,3.46,0,2.54-1.98,3.78-4.3,3.78-1.53,0-3.11-.59-4.05-1.69l1.5-1.41c.58.8,1.65,1.3,2.58,1.3.98,0,2.13-.49,2.13-1.76s-1.23-1.59-2.71-2.06c-1.43-.45-2.98-1.15-2.98-3.36,0-2.41,2.18-3.48,4.31-3.48,1.18,0,2.53.42,3.43,1.27l-1.37,1.51Z"/>
    <path class="cls-2" d="m59.19,7.77h3.28l3.06,8.42h.05l3.03-8.42h3.3v11.85h-2.08v-9.52h-.03l-3.58,9.52h-1.47l-3.53-9.52h-.03v9.52h-2V7.77Z"/>
    <path class="cls-2" d="m78.2,7.77h1.81l5.08,11.85h-2.4l-1.1-2.71h-5.11l-1.07,2.71h-2.35l5.13-11.85Zm2.66,7.33l-1.81-4.82-1.85,4.82h3.66Z"/>
    <path class="cls-2" d="m86.26,7.77h4.1c2.21,0,4.35.89,4.35,3.4,0,1.71-1.05,2.83-2.7,3.2l3.15,5.25h-2.53l-2.73-5.02h-1.53v5.02h-2.1V7.77Zm3.81,5.1c1.18,0,2.53-.28,2.53-1.72,0-1.29-1.27-1.61-2.35-1.61h-1.9v3.33h1.71Z"/>
    <path class="cls-2" d="m98.91,9.61h-3.61v-1.84h9.32v1.84h-3.61v10h-2.1v-10Z"/>
    <path class="cls-2" d="m49.63,27.85h2.1v4.78h5.51v-4.78h2.1v11.85h-2.1v-5.25h-5.51v5.25h-2.1v-11.85Z"/>
    <path class="cls-2" d="m67.68,27.55c3.68,0,6.36,2.39,6.36,6.19s-2.68,6.26-6.36,6.26-6.31-2.56-6.31-6.26,2.68-6.19,6.31-6.19Zm.02,10.56c2.41,0,4.06-1.84,4.06-4.37s-1.61-4.33-4.06-4.33-4.05,1.89-4.05,4.33,1.65,4.37,4.05,4.37Z"/>
    <path class="cls-2" d="m76.07,27.85h3.28l3.06,8.42h.05l3.03-8.42h3.3v11.85h-2.08v-9.52h-.03l-3.58,9.52h-1.47l-3.53-9.52h-.03v9.52h-2v-11.85Z"/>
    <path class="cls-2" d="m91.39,27.85h7.81v1.84h-5.71v3.01h5.41v1.77h-5.41v3.35h6.01v1.87h-8.11v-11.85Z"/>
    <path class="cls-2" d="m107.55,30.33c-.45-.59-1.33-1.02-2.16-1.02-.97,0-2.08.47-2.08,1.62,0,1.09.92,1.41,2.25,1.82,1.51.47,3.45,1.14,3.45,3.46,0,2.54-1.98,3.78-4.3,3.78-1.53,0-3.11-.59-4.05-1.69l1.5-1.41c.58.8,1.65,1.31,2.58,1.31.98,0,2.13-.49,2.13-1.76s-1.23-1.59-2.71-2.06c-1.43-.45-2.98-1.15-2.98-3.36,0-2.41,2.18-3.48,4.31-3.48,1.18,0,2.53.42,3.43,1.27l-1.37,1.51Z"/>
  </g>
</svg>