<?xml version="1.0" encoding="UTF-8"?>
<svg id="Layer_2" data-name="Layer 2" xmlns="http://www.w3.org/2000/svg" viewBox="0 0 137 50">
  <defs>
    <style>
      .cls-1 {
        fill: #fff;
      }

      .cls-2 {
        fill: #95c14a;
      }
    </style>
  </defs>
  <g>
    <path class="cls-1" d="m45.55,48.39l-2.81-2.79c3.53-3.66,5.7-8.63,5.7-14.1,0-10.5-8.01-19.17-18.24-20.21-.67-.07-1.35-.1-2.04-.1-11.22,0-20.31,9.1-20.31,20.32,0,8.23,4.89,15.32,11.93,18.5h16.76s0,0,0,0h-.02c1.41-.64,2.73-1.44,3.95-2.38l2.39,2.38h-.01,0s3.05,0,3.05,0l.02-.04s-.01,0-.02,0c.19-.53.07-1.15-.36-1.58Zm-5.08-5.06l-5.88-5.85c-.3-.29-.68-.44-1.07-.44s-.78.15-1.08.45c-.59.6-.59,1.56,0,2.15l5.73,5.7c-2.82,2.06-6.3,3.27-10.06,3.27-9.45,0-17.11-7.66-17.11-17.11s7.66-17.11,17.11-17.11,17.11,7.66,17.11,17.11c0,4.59-1.81,8.76-4.76,11.83Z"/>
    <path d="m40.47,47.62c-1.22.93-2.54,1.74-3.95,2.38h6.34l-2.39-2.38Z"/>
    <path class="cls-2" d="m55.92,26.45L31.01,1.17c-1.54-1.56-4.05-1.56-5.59,0L.3,26.53c-.63.64-.18,1.73.72,1.73h1.51c2.29,0,4.14,1.85,4.14,4.14v13.46c0,2.29,1.85,4.14,4.14,4.14h8.9c-7.03-3.2-11.92-10.29-11.92-18.5,0-11.21,9.12-20.32,20.33-20.32.71,0,1.4.04,2.09.11,10.23,1.05,18.24,9.71,18.24,20.21,0,5.47-2.17,10.44-5.7,14.1l2.81,2.79c.43.43.55,1.04.36,1.58,0,0,.01,0,.02,0,1.91-.26,3.39-1.89,3.39-3.88v-12.97c0-2.69,2.18-4.86,4.86-4.86h.98c.94,0,1.42-1.14.76-1.81Z"/>
    <path d="m28.11,14.39c-9.45,0-17.11,7.66-17.11,17.11s7.66,17.11,17.11,17.11c3.76,0,7.24-1.21,10.06-3.27l-5.73-5.7c-.59-.59-.6-1.55,0-2.15.3-.3.69-.45,1.08-.45s.78.15,1.07.44l5.88,5.85c2.95-3.07,4.76-7.24,4.76-11.83,0-9.45-7.66-17.11-17.11-17.11Z"/>
  </g>
  <g>
    <path class="cls-2" d="m69.93,12.81c-.56-.73-1.67-1.28-2.72-1.28-1.21,0-2.62.59-2.62,2.03,0,1.36,1.15,1.76,2.82,2.28,1.9.59,4.33,1.42,4.33,4.33,0,3.18-2.49,4.73-5.4,4.73-1.93,0-3.91-.73-5.08-2.11l1.88-1.76c.73,1,2.07,1.63,3.24,1.63,1.23,0,2.68-.61,2.68-2.2s-1.55-1.99-3.41-2.57c-1.8-.56-3.75-1.44-3.75-4.2,0-3.01,2.74-4.35,5.42-4.35,1.49,0,3.18.52,4.31,1.59l-1.72,1.88Z"/>
    <path class="cls-2" d="m74.39,9.71h4.12l3.85,10.52h.06l3.81-10.52h4.14v14.81h-2.62v-11.9h-.04l-4.5,11.9h-1.84l-4.44-11.9h-.04v11.9h-2.51v-14.81Z"/>
    <path class="cls-2" d="m98.29,9.71h2.28l6.38,14.81h-3.01l-1.38-3.39h-6.42l-1.34,3.39h-2.95l6.44-14.81Zm3.35,9.16l-2.28-6.02-2.32,6.02h4.6Z"/>
    <path class="cls-2" d="m108.42,9.71h5.15c2.78,0,5.46,1.11,5.46,4.25,0,2.13-1.32,3.53-3.39,3.99l3.95,6.57h-3.18l-3.43-6.27h-1.93v6.27h-2.64v-14.81Zm4.79,6.38c1.49,0,3.18-.36,3.18-2.15,0-1.61-1.59-2.01-2.95-2.01h-2.39v4.16h2.16Z"/>
    <path class="cls-2" d="m124.32,12.01h-4.54v-2.3h11.72v2.3h-4.54v12.51h-2.64v-12.51Z"/>
    <path class="cls-2" d="m62.38,34.81h2.64v5.98h6.93v-5.98h2.64v14.81h-2.64v-6.57h-6.93v6.57h-2.64v-14.81Z"/>
    <path class="cls-2" d="m85.06,34.44c4.62,0,7.99,2.99,7.99,7.74s-3.37,7.82-7.99,7.82-7.93-3.2-7.93-7.82,3.37-7.74,7.93-7.74Zm.02,13.2c3.03,0,5.11-2.3,5.11-5.46s-2.03-5.42-5.11-5.42-5.08,2.36-5.08,5.42,2.07,5.46,5.08,5.46Z"/>
    <path class="cls-2" d="m95.61,34.81h4.12l3.85,10.52h.06l3.81-10.52h4.14v14.81h-2.62v-11.9h-.04l-4.5,11.9h-1.84l-4.44-11.9h-.04v11.9h-2.51v-14.81Z"/>
    <path class="cls-2" d="m114.86,34.81h9.81v2.3h-7.18v3.76h6.8v2.22h-6.8v4.18h7.55v2.34h-10.19v-14.81Z"/>
    <path class="cls-2" d="m135.18,37.91c-.56-.73-1.67-1.28-2.72-1.28-1.21,0-2.62.59-2.62,2.03,0,1.36,1.15,1.76,2.82,2.28,1.9.59,4.33,1.42,4.33,4.33,0,3.18-2.49,4.73-5.4,4.73-1.93,0-3.91-.73-5.08-2.11l1.88-1.76c.73,1,2.07,1.63,3.24,1.63,1.23,0,2.68-.61,2.68-2.2s-1.55-1.99-3.41-2.57c-1.8-.56-3.75-1.44-3.75-4.2,0-3.01,2.74-4.35,5.42-4.35,1.49,0,3.18.52,4.31,1.59l-1.72,1.88Z"/>
  </g>
</svg>